<svg xmlns="http://www.w3.org/2000/svg" xmlns:xlink="http://www.w3.org/1999/xlink" width="32" height="32" viewBox="0 0 32 32"><defs><clipPath id="a"><rect width="32" height="32" transform="translate(-438 830)" fill="#fff" stroke="#707070" stroke-width="1"/></clipPath></defs><g transform="translate(438 -830)" clip-path="url(#a)"><g transform="translate(-2264 -4296.75)"><path d="M1680,689.75h-6a9.01,9.01,0,0,1-9-9v-10a9.01,9.01,0,0,1,9-9h6a9.01,9.01,0,0,1,9,9v10a9.01,9.01,0,0,1-9,9Zm-6-26a7.008,7.008,0,0,0-7,7v10a7.009,7.009,0,0,0,7,7h6a7.008,7.008,0,0,0,7-7v-10a7.008,7.008,0,0,0-7-7Z" transform="translate(165 4467)" fill="#9dc43a"/><path d="M1681,673.75h-8a3,3,0,0,1-3-3v-1a3,3,0,0,1,3-3h8a3,3,0,0,1,3,3v1a3,3,0,0,1-3,3Zm-8-5a1,1,0,0,0-1,1v1a1,1,0,0,0,1,1h8a1,1,0,0,0,1-1v-1a1,1,0,0,0-1-1Z" transform="translate(165 4467)" fill="#9dc43a"/><circle cx="1" cy="1" r="1" transform="translate(1836 5144.75)" fill="#9dc43a"/><circle cx="1" cy="1" r="1" transform="translate(1846 5144.75)" fill="#9dc43a"/><circle cx="1" cy="1" r="1" transform="translate(1841 5144.75)" fill="#9dc43a"/><circle cx="1" cy="1" r="1" transform="translate(1836 5148.75)" fill="#9dc43a"/><circle cx="1" cy="1" r="1" transform="translate(1846 5148.75)" fill="#9dc43a"/><circle cx="1" cy="1" r="1" transform="translate(1841 5148.75)" fill="#9dc43a"/></g></g></svg>