<svg xmlns="http://www.w3.org/2000/svg" xmlns:xlink="http://www.w3.org/1999/xlink" width="32" height="32" viewBox="0 0 32 32"><defs><clipPath id="a"><rect width="32" height="32" transform="translate(-481 830)" fill="#fff" stroke="#707070" stroke-width="1"/></clipPath></defs><g transform="translate(481 -830)" clip-path="url(#a)"><g transform="translate(-2297 -4422.5)"><path d="M1680,815.5h-20a7.008,7.008,0,0,1-7-7v-20a1,1,0,0,1,2,0v20a5.006,5.006,0,0,0,5,5h20a1,1,0,0,1,0,2Z" transform="translate(165 4467)" fill="#9dc43a"/><path d="M1658.22,808.121a1,1,0,0,1-.765-1.643l5.785-6.895a4,4,0,0,1,5.635-.492l1.531,1.285a2,2,0,0,0,2.818-.246l5.785-6.895a1,1,0,0,1,1.531,1.285l-5.785,6.895a4,4,0,0,1-5.635.492l-1.531-1.285a2,2,0,0,0-2.818.246l-5.785,6.894a.994.994,0,0,1-.767.357Z" transform="translate(165 4467)" fill="#9dc43a"/></g></g></svg>