<svg xmlns="http://www.w3.org/2000/svg" xmlns:xlink="http://www.w3.org/1999/xlink" width="400" height="413" viewBox="0 0 400 413"><defs><clipPath id="a"><rect width="400" height="413" transform="translate(-0.346 0.114)" fill="none"/></clipPath><clipPath id="g"><rect width="106.338" height="148.637" fill="none"/></clipPath><clipPath id="h"><rect width="29.349" height="16.828" fill="none"/></clipPath><clipPath id="i"><rect width="13.596" height="13.604" fill="none"/></clipPath><clipPath id="k"><rect width="13.597" height="13.604" fill="none"/></clipPath><clipPath id="m"><rect width="13.831" height="13.828" fill="none"/></clipPath><clipPath id="n"><rect width="13.597" height="13.605" fill="none"/></clipPath><clipPath id="r"><rect width="13.596" height="13.605" fill="none"/></clipPath><clipPath id="y"><rect width="54.688" height="97.322" fill="none"/></clipPath><clipPath id="z"><rect width="62.073" height="4.858" fill="none"/></clipPath></defs><g transform="translate(0.346 -0.114)"><g clip-path="url(#a)"><path d="M88.389,379.669l-1.452,1.555L43.523,433l96.265.059,26.47-53.116Z" transform="translate(-3.285 -28.447)" fill="#ebebeb"/><path d="M67.865,382.285l-1.452,1.608L18.049,437.428l93.8.06,33.882-54.916Z" transform="translate(-1.362 -28.643)" fill="#fafafa"/><g clip-path="url(#a)"><path d="M67.828,382.283s.117-.009.354-.014l1.062-.011,4.157-.014h15.8l56.492.117h.372l-.2.317-33.855,54.932-.07.114h-.134l-12.855-.007-80.949-.087h-.462l.31-.343,36.208-39.951,10.144-11.143,2.685-2.926c.613-.661.932-.984.932-.984s-.3.364-.891,1.034-1.486,1.67-2.632,2.96L54.244,397.5l-36.08,40.067-.153-.343,80.95.016,12.854.009-.2.114c12.349-19.995,23.912-38.715,33.908-54.9l.177.318-56.418-.3-15.83-.115-4.179-.045L68.2,382.3c-.242-.006-.368-.017-.368-.017" transform="translate(-1.324 -28.64)" fill="#e0e0e0"/><path d="M105.3,431.186a3.44,3.44,0,0,1-.661.043l-1.9.028-6.97.013-22.995-.138-23-.28-6.969-.14-1.9-.062a3.486,3.486,0,0,1-.66-.055,3.337,3.337,0,0,1,.66-.043l1.9-.029,6.97-.013,23,.139,22.995.279,6.969.141,1.894.062a3.4,3.4,0,0,1,.66.054" transform="translate(-3.038 -32.256)" fill="#e0e0e0"/><path d="M108.442,424.98a3.277,3.277,0,0,1-.645.043l-1.85.029-6.8.015-22.436-.133-22.438-.275-6.8-.139-1.848-.062a3.244,3.244,0,0,1-.645-.055,3.293,3.293,0,0,1,.645-.043l1.848-.029,6.8-.015,22.441.134,22.436.275,6.8.138,1.848.062a3.25,3.25,0,0,1,.644.055" transform="translate(-3.395 -31.792)" fill="#e0e0e0"/><path d="M113.064,418.72a3.159,3.159,0,0,1-.633.043l-1.816.029-6.677.017-22.026-.13-22.028-.271-6.676-.137-1.815-.062a3.174,3.174,0,0,1-.632-.054,3.079,3.079,0,0,1,.632-.043l1.815-.029,6.677-.016,22.031.129,22.026.271,6.675.138,1.815.061a3.108,3.108,0,0,1,.632.055" transform="translate(-3.831 -31.324)" fill="#e0e0e0"/><path d="M118.411,412.918a3.03,3.03,0,0,1-.62.043l-1.779.03-6.54.017L87.9,412.881l-21.577-.266-6.539-.136L58,412.417a3,3,0,0,1-.619-.055A3.026,3.026,0,0,1,58,412.32l1.779-.03,6.539-.017L87.9,412.4l21.575.266,6.539.136,1.777.061a2.988,2.988,0,0,1,.619.055" transform="translate(-4.331 -30.89)" fill="#e0e0e0"/><path d="M122.277,406.825a3.034,3.034,0,0,1-.62.043l-1.779.03-6.54.017-21.575-.126-21.577-.266-6.539-.136-1.778-.061a2.994,2.994,0,0,1-.619-.055,3.025,3.025,0,0,1,.619-.043l1.778-.03,6.54-.017,21.579.126,21.575.266,6.539.136,1.777.061a2.979,2.979,0,0,1,.619.055" transform="translate(-4.623 -30.433)" fill="#e0e0e0"/><path d="M127.989,400.767a3.032,3.032,0,0,1-.62.043l-1.779.03-6.54.017-21.575-.126L75.9,400.463l-6.539-.136-1.778-.061a3,3,0,0,1-.619-.055,3.02,3.02,0,0,1,.619-.043l1.778-.03,6.54-.017,21.579.126,21.575.266,6.538.136,1.778.061a2.985,2.985,0,0,1,.619.055" transform="translate(-5.054 -29.979)" fill="#e0e0e0"/><path d="M132.181,394.833a3.042,3.042,0,0,1-.621.04l-1.778.021-6.54-.012-21.574-.222L80.093,394.3l-6.538-.166-1.777-.069a3.018,3.018,0,0,1-.62-.057,3.014,3.014,0,0,1,.62-.04l1.778-.021,6.539.012,21.579.223,21.574.364,6.537.165,1.777.069a2.988,2.988,0,0,1,.619.057" transform="translate(-5.37 -29.516)" fill="#e0e0e0"/><path d="M138.628,389.195a3.035,3.035,0,0,1-.621.04l-1.779.021-6.539-.012-21.574-.222-21.575-.364L80,388.493l-1.778-.069a3,3,0,0,1-.619-.057,3.025,3.025,0,0,1,.62-.04L80,388.3l6.539.012,21.579.223,21.574.364,6.537.165,1.777.069a3,3,0,0,1,.619.057" transform="translate(-5.857 -29.094)" fill="#e0e0e0"/><path d="M42.914,200.817c0-6.52,3.924-10.666,9.482-10.666s9.43,4.09,9.43,10.666-3.871,10.668-9.43,10.668-9.482-4.145-9.482-10.668m13.462,0c0-4.143-1.581-6.135-3.98-6.135-2.343,0-3.978,2.046-3.978,6.135s1.636,6.135,3.978,6.135c2.4,0,3.98-1.989,3.98-6.135m18.748-10.224h6.486L55.558,229.283H49.071Zm-6.267,28.465c0-6.523,3.924-10.668,9.428-10.668,5.559,0,9.484,4.145,9.484,10.668s-3.925,10.666-9.484,10.666c-5.5,0-9.428-4.145-9.428-10.666m13.407,0c0-4.092-1.581-6.135-3.978-6.135-2.343,0-3.978,1.99-3.978,6.135s1.635,6.135,3.978,6.135c2.4,0,3.978-2.045,3.978-6.135" transform="translate(-3.239 -14.247)" fill="#ebebeb"/><path d="M371.792,35.993A42.38,42.38,0,1,1,323.584.48a42.354,42.354,0,0,1,48.208,35.513" transform="translate(-21.698 0)" fill="#f5f5f5"/><path d="M362.643,38.313a32.3,32.3,0,1,1-36.737-27.064,32.275,32.275,0,0,1,36.737,27.064" transform="translate(-22.521 -0.815)" fill="#ebebeb"/><path d="M362.437,37.213c-.192.036-.54-1.346-1.423-3.715a34.336,34.336,0,0,0-5.16-9.239,33.17,33.17,0,0,0-5.1-5.168,32.313,32.313,0,0,0-7.081-4.327,31.654,31.654,0,0,0-8.792-2.483,31.364,31.364,0,0,0-4.833-.256,31.539,31.539,0,0,0-9.776,1.789,31.381,31.381,0,0,0-4.428,1.952A31.676,31.676,0,0,0,308.5,21.2a32.36,32.36,0,0,0-5.087,6.557,33.2,33.2,0,0,0-2.944,6.642,34.312,34.312,0,0,0-1.55,10.465c.015,2.528.179,3.944-.016,3.977-.142.03-.631-1.332-.946-3.92a29.923,29.923,0,0,1,.83-11,32.4,32.4,0,0,1,8.089-14.315,31.285,31.285,0,0,1,3.6-3.211,31.681,31.681,0,0,1,4.217-2.757A32.979,32.979,0,0,1,319.45,11.5a33.083,33.083,0,0,1,10.544-1.93,32.882,32.882,0,0,1,5.213.315,32.908,32.908,0,0,1,9.42,2.812,32.35,32.35,0,0,1,12.632,10.52,29.915,29.915,0,0,1,4.675,10c.622,2.534.646,3.98.5,4" transform="translate(-22.473 -0.716)" fill="#e0e0e0"/><path d="M338.655,62.43l.919,5.553-4.955.82-.894-5.4c-4.954.514-9.916-.242-12.994-1.923l1.723-6.5a20.29,20.29,0,0,0,10.2,1.928l-1.37-8.281c-5.722-.426-12.17-1.243-13.343-8.334-.869-5.256,2.2-10.4,9.881-12.588l-.911-5.505,4.956-.821.894,5.406a22.714,22.714,0,0,1,10.559,1.357l-1.467,6.51a20.6,20.6,0,0,0-8.009-1.324l1.4,8.431c5.713.377,12.062,1.211,13.219,8.2.852,5.157-2.175,10.243-9.8,12.474m-8.581-21.1-1.166-7.04c-2.527,1.03-3.329,2.64-3.059,4.277.288,1.735,1.929,2.431,4.225,2.763m10.5,10.538c-.287-1.736-1.88-2.439-4.134-2.832l1.132,6.843c2.388-.956,3.265-2.425,3-4.011" transform="translate(-23.984 -1.601)" fill="#e0e0e0"/><path d="M424.7,302.75a33.936,33.936,0,1,1-20.333-43.434A33.892,33.892,0,0,1,424.7,302.75" transform="translate(-27.084 -19.275)" fill="#f5f5f5"/><path d="M417.768,300.644a25.862,25.862,0,1,1-15.494-33.1,25.827,25.827,0,0,1,15.494,33.1" transform="translate(-27.743 -19.928)" fill="#ebebeb"/><path d="M418.142,299.8c-.15-.048.135-1.154.42-3.158a27.493,27.493,0,0,0-.1-8.474,26.486,26.486,0,0,0-1.613-5.588,25.927,25.927,0,0,0-3.326-5.754,25.328,25.328,0,0,0-5.236-5.112,25.012,25.012,0,0,0-3.3-2.031,25.285,25.285,0,0,0-7.56-2.484,25.236,25.236,0,0,0-3.863-.323,25.317,25.317,0,0,0-7.245,1.014,25.884,25.884,0,0,0-6.086,2.664,26.547,26.547,0,0,0-4.609,3.546,27.473,27.473,0,0,0-5.092,6.768c-.957,1.784-1.383,2.843-1.532,2.792-.111-.033.066-1.179.834-3.12a23.9,23.9,0,0,1,4.792-7.422,26.134,26.134,0,0,1,4.733-3.954,26.424,26.424,0,0,1,6.429-3.019,24.992,24.992,0,0,1,3.757-.883,25.362,25.362,0,0,1,4.02-.325,26.325,26.325,0,0,1,4.171.317,26.516,26.516,0,0,1,8.155,2.679,26.35,26.35,0,0,1,3.546,2.217,26.351,26.351,0,0,1,5.55,5.584,25.928,25.928,0,0,1,4.863,12.235,23.973,23.973,0,0,1-.533,8.821c-.531,2.019-1.068,3.045-1.177,3.008" transform="translate(-27.847 -19.851)" fill="#e0e0e0"/><path d="M391.851,308l-1.477,4.258-3.8-1.32,1.437-4.143c-3.681-1.535-6.883-3.966-8.4-6.327l3.7-3.913a16.265,16.265,0,0,0,6.436,5.259l2.2-6.35c-3.862-2.489-8.085-5.533-6.2-10.97,1.4-4.031,5.523-6.474,11.763-5.073l1.464-4.22,3.8,1.319-1.438,4.145a18.18,18.18,0,0,1,6.908,5l-3.522,4.018a16.483,16.483,0,0,0-5.127-4l-2.242,6.464c3.875,2.451,8.022,5.47,6.163,10.829-1.372,3.955-5.446,6.373-11.662,5.024m2.03-18.124,1.871-5.4c-2.172-.243-3.351.583-3.787,1.837-.461,1.33.427,2.45,1.916,3.561m3.357,11.433c.461-1.331-.39-2.436-1.826-3.575l-1.819,5.247c2.044.242,3.223-.456,3.645-1.672" transform="translate(-28.649 -20.62)" fill="#e0e0e0"/><rect width="210.168" height="137.034" transform="translate(25.478 21.852)" fill="#f5f5f5"/><rect width="210.168" height="136.735" transform="translate(15.089 14.442)" fill="#ebebeb"/></g><g clip-path="url(#a)"><path d="M393.408,369.74c0,.133-88.074.241-196.695.241C88.056,369.98,0,369.873,0,369.74s88.056-.241,196.713-.241c108.62,0,196.695.107,196.695.241" transform="translate(0 -27.685)" fill="#263238"/></g><path d="M392.539,429.531,310.062,432.2l-63.952-59.375h80.138Z" transform="translate(-18.574 -27.934)" fill="#f5f5f5"/><path d="M214.177,382.389l63.951,59.375,82.478-2.673-66.291-56.7Z" transform="translate(-16.164 -28.65)" fill="#f5f5f5"/><path d="M375.616,432.729,293.138,435.4l-63.951-59.375h80.138Z" transform="translate(-17.297 -28.174)" fill="#e0e0e0"/><path d="M298.278,372.829H218.139L282.091,432.2l85.117-2.759Z" transform="translate(-16.463 -27.934)" fill="#f5f5f5"/><g clip-path="url(#a)"><path d="M298.235,372.812s.112.079.327.248l.956.765,3.715,3.012L317.3,388.314l50,40.951.435.356-.561.019-81.629,2.674-3.487.114-.1,0-.072-.068-63.927-59.4-.381-.354h.52l58.191.09,16.23.056,4.263.03c.963.009,1.454.03,1.454.03s-.506.02-1.475.03l-4.281.03-16.25.055-58.133.09.139-.354c18.47,17.135,40.414,37.491,63.976,59.347l-.172-.064,3.487-.113,81.631-2.616-.128.375L317.192,388.54l-14.007-11.58-3.691-3.071-.945-.8c-.211-.18-.315-.28-.315-.28" transform="translate(-16.421 -27.918)" fill="#263238"/><path d="M331.24,409.845c0,.133-12.78.641-28.549,1.135s-28.564.786-28.568.653,12.777-.641,28.552-1.135,28.561-.786,28.565-.653" transform="translate(-20.688 -30.705)" fill="#263238"/><path d="M338.538,415.321c0,.133-12.983.638-29,1.13s-29.016.781-29.021.648,12.98-.638,29.006-1.13,29.015-.781,29.018-.648" transform="translate(-21.171 -31.116)" fill="#263238"/><path d="M346.294,420.81c0,.133-13.074.664-29.207,1.187s-29.221.838-29.224.7,13.07-.664,29.209-1.187,29.218-.838,29.223-.7" transform="translate(-21.725 -31.527)" fill="#263238"/><path d="M326.841,404.886c0,.133-13.151.659-29.381,1.175s-29.4.826-29.4.693,13.15-.659,29.384-1.175,29.393-.826,29.4-.693" transform="translate(-20.231 -30.334)" fill="#263238"/><path d="M297.79,384.36c0,.133-12.2.475-27.261.764s-27.271.416-27.274.283,12.2-.475,27.264-.764,27.267-.416,27.27-.283" transform="translate(-18.359 -28.794)" fill="#263238"/><path d="M305.026,389.836c0,.133-12.579.483-28.1.781s-28.108.432-28.11.3,12.576-.483,28.1-.781,28.106-.432,28.108-.3" transform="translate(-18.778 -29.205)" fill="#263238"/><path d="M312.17,395.313c0,.133-13.2.495-29.483.808s-29.493.458-29.5.325,13.2-.494,29.487-.807,29.49-.459,29.493-.326" transform="translate(-19.109 -29.615)" fill="#263238"/><path d="M319.542,400.79c0,.133-13.2.495-29.483.808s-29.493.458-29.5.326,13.2-.495,29.487-.808,29.49-.459,29.492-.326" transform="translate(-19.665 -30.025)" fill="#263238"/><path d="M293.387,379.4a2.518,2.518,0,0,1-.57.056l-1.637.069-6.026.164-19.885.358-19.889.216-6.027.011-1.638-.022a2.556,2.556,0,0,1-.571-.04,2.553,2.553,0,0,1,.57-.057l1.639-.068,6.026-.164,19.885-.358,19.884-.216,6.028-.011,1.64.021a2.625,2.625,0,0,1,.572.041" transform="translate(-17.897 -28.422)" fill="#263238"/></g><path d="M268.451,393.252l-21.028-19.268,72.81-2.89,21.4,11.853Z" transform="translate(-18.673 -27.804)" fill="#455a64"/><path d="M256.584,376.95l4.089,3.508-.018-2.5-4.325-3.234Z" transform="translate(-19.345 -28.076)" fill="#263238"/><path d="M260.614,378.1l5.9-.2-4.746-3.446-5.435.251Z" transform="translate(-19.345 -28.056)" fill="#adcc60"/><path d="M260.964,378.377l.058,2.341,5.76-.374.079-2.167Z" transform="translate(-19.695 -28.335)" fill="#263238"/><g clip-path="url(#a)"><path d="M266.511,377.878a33.215,33.215,0,0,1-4.747-3.056l-.28-.2.15.044a30.612,30.612,0,0,1-5.3.015,30.568,30.568,0,0,1,5.28-.5l.082,0,.068.048.28.2a33.3,33.3,0,0,1,4.47,3.45" transform="translate(-19.345 -28.036)" fill="#263238"/><path d="M260.984,380.735c-.133,0-.254-.513-.271-1.154s.078-1.164.211-1.166.253.512.271,1.154-.078,1.163-.211,1.167" transform="translate(-19.676 -28.353)" fill="#455a64"/><path d="M267.256,376.749l4.089,3.508-.018-2.5L267,374.522Z" transform="translate(-20.151 -28.061)" fill="#263238"/><path d="M271.287,377.9l5.9-.2-4.746-3.446L267,374.5Z" transform="translate(-20.151 -28.041)" fill="#e0e0e0"/><path d="M271.637,378.177l.058,2.34,5.76-.374.079-2.167Z" transform="translate(-20.501 -28.32)" fill="#263238"/><path d="M277.184,377.677a33.248,33.248,0,0,1-4.747-3.056l-.28-.2.15.043a30.558,30.558,0,0,1-5.3.016,30.558,30.558,0,0,1,5.28-.5l.082,0,.068.048.28.2a33.3,33.3,0,0,1,4.47,3.45" transform="translate(-20.151 -28.021)" fill="#263238"/><path d="M271.657,380.534c-.133,0-.254-.513-.271-1.154s.078-1.164.211-1.167.254.512.271,1.154-.078,1.163-.211,1.167" transform="translate(-20.482 -28.338)" fill="#455a64"/><path d="M277.475,376.614l4.089,3.508-.017-2.5-4.325-3.234Z" transform="translate(-20.922 -28.051)" fill="#263238"/><path d="M281.506,377.762l5.9-.2-4.746-3.446-5.435.251Z" transform="translate(-20.922 -28.031)" fill="#455a64"/><path d="M281.855,378.041l.058,2.34,5.76-.374.079-2.167Z" transform="translate(-21.272 -28.31)" fill="#263238"/><path d="M287.4,377.542a33.2,33.2,0,0,1-4.748-3.056l-.28-.2.15.043a30.546,30.546,0,0,1-5.3.016,30.571,30.571,0,0,1,5.28-.5l.082,0,.067.048.281.2a33.3,33.3,0,0,1,4.47,3.45" transform="translate(-20.922 -28.011)" fill="#263238"/><path d="M281.875,380.4c-.133,0-.254-.513-.271-1.154s.078-1.164.211-1.167.254.513.271,1.154-.078,1.163-.211,1.167" transform="translate(-21.253 -28.328)" fill="#455a64"/><path d="M288.116,376.31l4.089,3.508-.018-2.5-4.325-3.234Z" transform="translate(-21.725 -28.028)" fill="#263238"/><path d="M292.146,377.457l5.9-.2-4.746-3.447-5.434.252Z" transform="translate(-21.725 -28.008)" fill="#455a64"/><path d="M292.5,377.737l.058,2.34,5.76-.374.079-2.166Z" transform="translate(-22.075 -28.287)" fill="#263238"/><path d="M298.043,377.237a33.262,33.262,0,0,1-4.747-3.056l-.28-.2.15.044a30.572,30.572,0,0,1-5.3.016,30.559,30.559,0,0,1,5.28-.5l.082,0,.068.047.28.2a33.278,33.278,0,0,1,4.47,3.45" transform="translate(-21.725 -27.988)" fill="#263238"/><path d="M292.516,380.1c-.133,0-.254-.513-.271-1.154s.078-1.164.211-1.167.254.513.271,1.154-.078,1.163-.211,1.167" transform="translate(-22.056 -28.305)" fill="#455a64"/><path d="M298.908,376.042,303,379.55l-.018-2.5-4.325-3.235Z" transform="translate(-22.54 -28.008)" fill="#263238"/><path d="M302.939,377.19l5.9-.2-4.746-3.446-5.434.251Z" transform="translate(-22.54 -27.988)" fill="#455a64"/><path d="M303.289,377.469l.058,2.34,5.76-.374.079-2.167Z" transform="translate(-22.889 -28.267)" fill="#263238"/><path d="M308.836,376.97a33.26,33.26,0,0,1-4.747-3.056l-.28-.2.15.043a30.541,30.541,0,0,1-5.3.016,30.578,30.578,0,0,1,5.28-.5l.082,0,.068.048.281.2a33.28,33.28,0,0,1,4.47,3.45" transform="translate(-22.54 -27.968)" fill="#263238"/><path d="M303.309,379.827c-.133,0-.254-.513-.271-1.154s.078-1.164.211-1.166.254.513.271,1.154-.078,1.163-.211,1.167" transform="translate(-22.87 -28.285)" fill="#455a64"/><path d="M309.214,375.56l4.089,3.508-.018-2.5-4.325-3.235Z" transform="translate(-23.317 -27.972)" fill="#263238"/><path d="M313.244,376.708l5.9-.2-4.746-3.446-5.435.251Z" transform="translate(-23.317 -27.952)" fill="#455a64"/><path d="M313.594,376.987l.058,2.34,5.76-.374.079-2.167Z" transform="translate(-23.667 -28.231)" fill="#263238"/><path d="M319.141,376.487a33.181,33.181,0,0,1-4.747-3.055l-.28-.2.15.043a30.549,30.549,0,0,1-5.3.016,30.569,30.569,0,0,1,5.28-.5l.082,0,.068.048c.089.061.184.13.28.2a33.353,33.353,0,0,1,4.47,3.449" transform="translate(-23.317 -27.932)" fill="#263238"/><path d="M313.614,379.345c-.133,0-.254-.513-.271-1.154s.078-1.164.211-1.167.254.513.271,1.154-.078,1.163-.211,1.167" transform="translate(-23.648 -28.249)" fill="#455a64"/><path d="M319.288,374.979l4.089,3.508-.018-2.5-4.325-3.234Z" transform="translate(-24.078 -27.928)" fill="#263238"/><path d="M323.319,376.127l5.9-.2-4.747-3.447-5.434.252Z" transform="translate(-24.078 -27.908)" fill="#455a64"/><path d="M323.669,376.406l.058,2.34,5.76-.374.079-2.167Z" transform="translate(-24.427 -28.187)" fill="#263238"/><path d="M329.216,375.907a33.314,33.314,0,0,1-4.747-3.056l-.28-.2.15.044a30.546,30.546,0,0,1-5.3.016,30.57,30.57,0,0,1,5.28-.5l.082,0,.068.047.28.2a33.219,33.219,0,0,1,4.47,3.45" transform="translate(-24.078 -27.888)" fill="#263238"/><path d="M323.689,378.764c-.133,0-.254-.513-.271-1.154s.078-1.164.211-1.166.254.512.271,1.154-.078,1.163-.211,1.167" transform="translate(-24.408 -28.205)" fill="#455a64"/><path d="M263.7,384.069l4.089,3.508-.018-2.5-4.325-3.235Z" transform="translate(-19.883 -28.609)" fill="#263238"/><path d="M267.734,385.217l5.9-.2-4.747-3.447-5.434.252Z" transform="translate(-19.883 -28.589)" fill="#455a64"/><path d="M268.084,385.5l.058,2.34,5.76-.374.079-2.167Z" transform="translate(-20.233 -28.868)" fill="#263238"/><path d="M273.631,385a33.238,33.238,0,0,1-4.748-3.056l-.28-.2.15.044a30.557,30.557,0,0,1-5.3.016,30.556,30.556,0,0,1,5.28-.5l.082,0,.068.048.28.2a33.313,33.313,0,0,1,4.47,3.45" transform="translate(-19.883 -28.569)" fill="#263238"/><path d="M268.1,387.855c-.133,0-.254-.513-.271-1.154s.078-1.164.211-1.166.254.512.271,1.154-.078,1.163-.211,1.166" transform="translate(-20.213 -28.886)" fill="#455a64"/><path d="M274.376,383.869l4.089,3.508-.018-2.5-4.325-3.234Z" transform="translate(-20.688 -28.595)" fill="#263238"/><path d="M278.407,385.017l5.9-.2-4.747-3.446-5.434.251Z" transform="translate(-20.688 -28.574)" fill="#455a64"/><path d="M278.757,385.3l.058,2.34,5.76-.374.079-2.166Z" transform="translate(-21.038 -28.853)" fill="#263238"/><path d="M284.3,384.8a33.237,33.237,0,0,1-4.747-3.055l-.28-.2.15.044a30.562,30.562,0,0,1-5.3.016,30.557,30.557,0,0,1,5.28-.5l.082,0,.068.048.28.2a33.317,33.317,0,0,1,4.47,3.45" transform="translate(-20.688 -28.554)" fill="#263238"/><path d="M278.777,387.654c-.133,0-.254-.513-.271-1.154s.078-1.164.211-1.167.254.512.271,1.154-.078,1.163-.211,1.167" transform="translate(-21.019 -28.871)" fill="#455a64"/><path d="M284.6,383.734l4.089,3.508-.018-2.5-4.325-3.235Z" transform="translate(-21.46 -28.584)" fill="#263238"/><path d="M288.626,384.882l5.9-.2-4.746-3.447-5.435.252Z" transform="translate(-21.459 -28.564)" fill="#455a64"/><path d="M288.975,385.161l.058,2.34,5.76-.374.079-2.167Z" transform="translate(-21.809 -28.843)" fill="#263238"/><path d="M294.522,384.662a33.2,33.2,0,0,1-4.747-3.056l-.28-.2.15.043a30.546,30.546,0,0,1-5.3.016,30.572,30.572,0,0,1,5.28-.5l.082,0,.068.048.28.2a33.209,33.209,0,0,1,4.47,3.45" transform="translate(-21.459 -28.544)" fill="#263238"/><path d="M288.995,387.519c-.133,0-.254-.513-.271-1.154s.078-1.164.211-1.167.254.513.271,1.154-.078,1.163-.211,1.167" transform="translate(-21.79 -28.861)" fill="#455a64"/><path d="M295.236,383.429l4.089,3.508-.018-2.5-4.325-3.235Z" transform="translate(-22.263 -28.562)" fill="#263238"/><path d="M299.266,384.577l5.9-.2-4.746-3.446-5.435.251Z" transform="translate(-22.263 -28.541)" fill="#455a64"/><path d="M299.616,384.856l.058,2.34,5.76-.374.079-2.167Z" transform="translate(-22.612 -28.82)" fill="#263238"/><path d="M305.163,384.357a33.2,33.2,0,0,1-4.747-3.056l-.28-.2.15.043a30.552,30.552,0,0,1-5.3.016,30.564,30.564,0,0,1,5.28-.5l.082,0,.068.047.281.2a33.308,33.308,0,0,1,4.47,3.45" transform="translate(-22.263 -28.521)" fill="#263238"/><path d="M299.636,387.214c-.133,0-.254-.513-.271-1.154s.078-1.164.211-1.167.254.512.271,1.154-.078,1.163-.211,1.167" transform="translate(-22.593 -28.838)" fill="#455a64"/><path d="M306.028,383.162l4.089,3.508-.017-2.5-4.325-3.234Z" transform="translate(-23.077 -28.542)" fill="#263238"/><path d="M310.059,384.31l5.9-.2-4.746-3.446-5.435.251Z" transform="translate(-23.077 -28.521)" fill="#455a64"/><path d="M310.409,384.589l.058,2.341,5.76-.374.079-2.167Z" transform="translate(-23.427 -28.8)" fill="#263238"/><path d="M315.955,384.09a33.251,33.251,0,0,1-4.747-3.056l-.28-.2.15.043a30.557,30.557,0,0,1-5.3.016,30.562,30.562,0,0,1,5.28-.5l.082,0,.067.047.281.2a33.3,33.3,0,0,1,4.47,3.45" transform="translate(-23.077 -28.501)" fill="#263238"/><path d="M310.429,386.947c-.133,0-.254-.513-.271-1.154s.078-1.164.211-1.167.254.512.271,1.154-.078,1.163-.211,1.167" transform="translate(-23.408 -28.818)" fill="#455a64"/><path d="M316.334,382.68l4.089,3.508-.018-2.5-4.325-3.234Z" transform="translate(-23.855 -28.505)" fill="#263238"/><path d="M320.364,383.827l5.9-.2-4.746-3.447-5.435.252Z" transform="translate(-23.855 -28.485)" fill="#455a64"/><path d="M320.714,384.107l.058,2.34,5.76-.374.079-2.166Z" transform="translate(-24.205 -28.764)" fill="#263238"/><path d="M326.261,383.607a33.324,33.324,0,0,1-4.748-3.057l-.28-.2.15.043a30.563,30.563,0,0,1-5.3.016,30.563,30.563,0,0,1,5.28-.5l.082,0,.068.047.28.2a33.207,33.207,0,0,1,4.47,3.45" transform="translate(-23.855 -28.465)" fill="#263238"/><path d="M320.734,386.464c-.133,0-.254-.513-.271-1.154s.078-1.164.211-1.167.253.513.271,1.154-.078,1.163-.211,1.167" transform="translate(-24.185 -28.782)" fill="#455a64"/><path d="M326.408,382.1l4.089,3.508-.018-2.5-4.325-3.235Z" transform="translate(-24.615 -28.462)" fill="#263238"/><path d="M330.439,383.247l5.9-.2-4.747-3.446-5.434.251Z" transform="translate(-24.615 -28.442)" fill="#455a64"/><path d="M330.789,383.526l.058,2.34,5.76-.374.079-2.166Z" transform="translate(-24.965 -28.721)" fill="#263238"/><path d="M336.336,383.027a33.173,33.173,0,0,1-4.748-3.055l-.28-.2.151.043a30.559,30.559,0,0,1-5.3.016,30.554,30.554,0,0,1,5.28-.5l.082,0,.068.048.281.2a33.339,33.339,0,0,1,4.471,3.45" transform="translate(-24.615 -28.422)" fill="#263238"/><path d="M330.809,385.884c-.133,0-.254-.513-.271-1.154s.078-1.164.211-1.167.254.512.271,1.154-.078,1.163-.211,1.167" transform="translate(-24.946 -28.739)" fill="#455a64"/><path d="M362.081,377.886l-82.564,4.495-10.962,10.373-21.131-18.537V379.6l21.888,20.992L281.4,388.829l81.946-4.89Z" transform="translate(-18.673 -28.038)" fill="#263238"/><path d="M271.1,401.375l74.6-4.367,19.43-12.28-83.917,3.294Z" transform="translate(-20.46 -28.826)" fill="#263238"/><path d="M365.127,384.726a1.042,1.042,0,0,1-.253.04l-.747.068-2.875.217-10.579.708-34.914,2.154L283.192,389.8l.115-.05-8.889,8.538-2.442,2.309-.645.592a1.241,1.241,0,0,1-.232.189,1.273,1.273,0,0,1,.2-.227l.609-.629,2.374-2.377,8.778-8.654.047-.047.068,0,32.559-2,34.922-2.013,10.589-.555,2.88-.127.751-.02a1.035,1.035,0,0,1,.256.009" transform="translate(-20.46 -28.825)" fill="#455a64"/><path d="M284.012,389.49a23.493,23.493,0,0,1-1.878-6.448,23.578,23.578,0,0,1,1.878,6.448" transform="translate(-21.291 -28.699)" fill="#455a64"/></g><g clip-path="url(#a)"><path d="M376.4,228.823l-74.1-14.192a4.181,4.181,0,0,1-3.319-4.892L322.83,85.084a5.935,5.935,0,0,1,6.945-4.716L400.427,93.9a5.938,5.938,0,0,1,4.713,6.949L381.295,225.5a4.179,4.179,0,0,1-4.89,3.32" transform="translate(-22.559 -6.014)" fill="#455a64"/><g transform="translate(276.292 74.228)" opacity="0.4"><g clip-path="url(#g)"><path d="M376.342,228.8l-74.1-14.192a4.18,4.18,0,0,1-3.319-4.892L322.767,85.063a5.935,5.935,0,0,1,6.945-4.716l70.652,13.531a5.939,5.939,0,0,1,4.713,6.949L381.232,225.482a4.179,4.179,0,0,1-4.89,3.32" transform="translate(-298.846 -80.24)"/></g></g><path d="M369.429,227.457l-74.1-14.193a4.179,4.179,0,0,1-3.318-4.892L315.854,83.718A5.935,5.935,0,0,1,322.8,79l70.652,13.532a5.938,5.938,0,0,1,4.713,6.949L374.319,224.137a4.18,4.18,0,0,1-4.89,3.32" transform="translate(-22.032 -5.911)" fill="#455a64"/><path d="M332.66,210.132l-23.367-4.475a2.237,2.237,0,0,1-1.777-2.618l1.506-7.875a2.236,2.236,0,0,1,2.618-1.778l23.367,4.476a2.237,2.237,0,0,1,1.777,2.62l-1.506,7.873a2.237,2.237,0,0,1-2.618,1.778" transform="translate(-23.205 -14.486)" fill="#455a64"/><g transform="translate(284.271 178.859)" opacity="0.2"><g clip-path="url(#h)"><path d="M332.66,210.132l-23.367-4.475a2.237,2.237,0,0,1-1.777-2.618l1.506-7.875a2.236,2.236,0,0,1,2.618-1.778l23.367,4.476a2.237,2.237,0,0,1,1.777,2.62l-1.506,7.873a2.237,2.237,0,0,1-2.618,1.778" transform="translate(-307.476 -193.345)"/></g></g><rect width="28.113" height="71.646" transform="translate(293.54 114.231) rotate(-79.164)" fill="#fafafa"/><path d="M387.861,134.712s.027-.17.086-.494.149-.8.264-1.43c.236-1.258.582-3.106,1.029-5.49.9-4.763,2.2-11.661,3.822-20.221l.067.1-70.373-13.44h0l.142-.1c-1.849,9.66-3.636,18.993-5.288,27.62l-.092-.136,50.423,9.712,14.643,2.837,3.92.766,1.015.2c.228.046.348.074.348.074s-.112-.017-.337-.057l-1-.185-3.9-.732-14.629-2.769-50.522-9.621-.114-.021.022-.115c1.648-8.627,3.432-17.96,5.278-27.621l.023-.119.119.023h0l70.359,13.513.083.016-.017.083c-1.66,8.575-3,15.484-3.921,20.255-.463,2.372-.822,4.211-1.066,5.463l-.279,1.413c-.064.316-.1.474-.1.474" transform="translate(-23.951 -7.003)" fill="#263238"/><path d="M327.1,150.127l-8.181-1.567a1.925,1.925,0,0,1-1.528-2.253l1.566-8.186a1.925,1.925,0,0,1,2.252-1.529l8.18,1.566a1.926,1.926,0,0,1,1.529,2.253l-1.566,8.186a1.925,1.925,0,0,1-2.252,1.529" transform="translate(-23.951 -10.232)" fill="#455a64"/><g transform="translate(293.404 126.325)" opacity="0.2"><g clip-path="url(#i)"><path d="M327.1,150.127l-8.181-1.567a1.925,1.925,0,0,1-1.528-2.253l1.566-8.186a1.925,1.925,0,0,1,2.252-1.529l8.18,1.566a1.926,1.926,0,0,1,1.529,2.253l-1.566,8.186a1.925,1.925,0,0,1-2.252,1.529" transform="translate(-317.355 -136.557)"/></g></g><path d="M325.1,149.744l-8.18-1.567a1.925,1.925,0,0,1-1.529-2.253l1.566-8.185a1.924,1.924,0,0,1,2.252-1.529l8.18,1.566a1.926,1.926,0,0,1,1.529,2.253l-1.566,8.186a1.925,1.925,0,0,1-2.252,1.529" transform="translate(-23.8 -10.203)" fill="#263238"/><path d="M323.96,140.913l-.954,4.988-1.154-.221.778-4.061-1-.191.177-.926Z" transform="translate(-24.274 -10.527)" fill="#fff"/><path d="M345.14,153.58l-8.18-1.567a1.925,1.925,0,0,1-1.529-2.253L337,141.574a1.924,1.924,0,0,1,2.252-1.529l8.18,1.566a1.926,1.926,0,0,1,1.529,2.254l-1.566,8.186a1.925,1.925,0,0,1-2.252,1.529" transform="translate(-25.313 -10.49)" fill="#455a64"/><g transform="translate(310.083 129.52)" opacity="0.2"><g clip-path="url(#i)"><path d="M345.14,153.58l-8.18-1.567a1.925,1.925,0,0,1-1.529-2.253L337,141.574a1.924,1.924,0,0,1,2.252-1.529l8.18,1.566a1.926,1.926,0,0,1,1.529,2.254l-1.566,8.186a1.925,1.925,0,0,1-2.252,1.529" transform="translate(-335.396 -140.01)"/></g></g><path d="M343.142,153.2l-8.18-1.567a1.925,1.925,0,0,1-1.529-2.253L335,141.191a1.924,1.924,0,0,1,2.252-1.529l8.18,1.566a1.927,1.927,0,0,1,1.529,2.253l-1.566,8.186a1.925,1.925,0,0,1-2.252,1.529" transform="translate(-25.162 -10.462)" fill="#263238"/><path d="M342.981,148.777l-.18.941L339.034,149l.143-.748,2.271-1.449c.521-.336.648-.577.7-.82.075-.392-.153-.672-.679-.772a1.243,1.243,0,0,0-1.129.3l-.736-.7a2.355,2.355,0,0,1,2.157-.548c1.11.213,1.742.925,1.569,1.83a2.026,2.026,0,0,1-1.134,1.415l-1.354.863Z" transform="translate(-25.587 -10.804)" fill="#fff"/><path d="M363.843,157.16l-8.181-1.567a1.925,1.925,0,0,1-1.528-2.253l1.566-8.185a1.924,1.924,0,0,1,2.252-1.529l8.18,1.566a1.926,1.926,0,0,1,1.529,2.253l-1.566,8.186a1.925,1.925,0,0,1-2.252,1.529" transform="translate(-26.724 -10.758)" fill="#455a64"/><g transform="translate(327.374 132.832)" opacity="0.2"><g clip-path="url(#k)"><path d="M363.843,157.16l-8.181-1.567a1.925,1.925,0,0,1-1.528-2.253l1.566-8.185a1.924,1.924,0,0,1,2.252-1.529l8.18,1.566a1.926,1.926,0,0,1,1.529,2.253l-1.566,8.186a1.925,1.925,0,0,1-2.252,1.529" transform="translate(-354.098 -143.59)"/></g></g><path d="M361.844,156.777l-8.181-1.567a1.925,1.925,0,0,1-1.528-2.253l1.566-8.185a1.924,1.924,0,0,1,2.252-1.529l8.18,1.566a1.926,1.926,0,0,1,1.529,2.253l-1.566,8.186a1.925,1.925,0,0,1-2.252,1.529" transform="translate(-26.573 -10.73)" fill="#263238"/><path d="M361.739,151.749c-.161.842-.956,1.488-2.372,1.216a3.488,3.488,0,0,1-1.8-.9l.618-.8a2.466,2.466,0,0,0,1.339.722c.577.11.978-.057,1.056-.463.072-.377-.161-.666-.816-.792l-.527-.1.146-.762,1.248-.965-2.123-.407.177-.926,3.49.668-.143.747-1.371,1.068a1.441,1.441,0,0,1,1.079,1.69" transform="translate(-26.986 -11.057)" fill="#fff"/><path d="M382.545,160.739l-8.18-1.567a1.925,1.925,0,0,1-1.529-2.253l1.566-8.185a1.924,1.924,0,0,1,2.252-1.529l8.18,1.566a1.926,1.926,0,0,1,1.529,2.254L384.8,159.21a1.925,1.925,0,0,1-2.252,1.529" transform="translate(-28.136 -11.027)" fill="#455a64"/><g transform="translate(344.665 136.143)" opacity="0.2"><g clip-path="url(#i)"><path d="M382.545,160.739l-8.18-1.567a1.925,1.925,0,0,1-1.529-2.253l1.566-8.185a1.924,1.924,0,0,1,2.252-1.529l8.18,1.566a1.926,1.926,0,0,1,1.529,2.254L384.8,159.21a1.925,1.925,0,0,1-2.252,1.529" transform="translate(-372.801 -147.17)"/></g></g><path d="M380.593,160.361l-8.18-1.567a1.926,1.926,0,0,1-1.529-2.253l1.566-8.185a1.924,1.924,0,0,1,2.252-1.529l8.18,1.566a1.926,1.926,0,0,1,1.529,2.253l-1.566,8.186a1.925,1.925,0,0,1-2.252,1.529" transform="translate(-27.988 -10.998)" fill="#263238"/><path d="M380.569,154.6l-5.341-1.023.087-.457,5.341,1.023Z" transform="translate(-28.319 -11.473)" fill="#fff"/><path d="M379.439,151.5a.882.882,0,1,1-.7-1.032.881.881,0,0,1,.7,1.032" transform="translate(-28.505 -11.273)" fill="#fff"/><path d="M378.475,156.537a.882.882,0,1,1-.7-1.032.882.882,0,0,1,.7,1.032" transform="translate(-28.432 -11.65)" fill="#fff"/><g transform="translate(289.939 143.746)" opacity="0.2"><g clip-path="url(#m)"><path d="M324.108,169.194l-9.472-1.814a1.269,1.269,0,0,1-1.007-1.484l1.813-9.477a1.269,1.269,0,0,1,1.484-1.007l9.471,1.814a1.252,1.252,0,0,1,1.007,1.485l-1.813,9.476a1.267,1.267,0,0,1-1.483,1.007" transform="translate(-313.607 -155.388)"/></g></g><path d="M321.474,168.7l-8.18-1.567a1.925,1.925,0,0,1-1.529-2.253l1.566-8.185a1.924,1.924,0,0,1,2.252-1.529l8.18,1.566a1.926,1.926,0,0,1,1.529,2.253l-1.566,8.186a1.925,1.925,0,0,1-2.252,1.529" transform="translate(-23.526 -11.623)" fill="#263238"/><path d="M320.9,164.106l-.813-.155-.2,1.047-1.125-.216.2-1.047-2.685-.514.148-.776,2.956-2.714,1.21.232-2.752,2.582,1.339.256.178-.932,1.089.208-.178.933.813.155Z" transform="translate(-23.87 -11.968)" fill="#fff"/><path d="M341.512,172.532l-8.181-1.567a1.925,1.925,0,0,1-1.528-2.253l1.566-8.185A1.924,1.924,0,0,1,335.62,159l8.18,1.566a1.926,1.926,0,0,1,1.529,2.253L343.764,171a1.925,1.925,0,0,1-2.252,1.529" transform="translate(-25.039 -11.91)" fill="#455a64"/><g transform="translate(306.729 147.052)" opacity="0.2"><g clip-path="url(#n)"><path d="M341.512,172.532l-8.181-1.567a1.925,1.925,0,0,1-1.528-2.253l1.566-8.185A1.924,1.924,0,0,1,335.62,159l8.18,1.566a1.926,1.926,0,0,1,1.529,2.253L343.764,171a1.925,1.925,0,0,1-2.252,1.529" transform="translate(-331.768 -158.962)"/></g></g><path d="M339.515,172.15l-8.181-1.567a1.925,1.925,0,0,1-1.528-2.253l1.566-8.186a1.924,1.924,0,0,1,2.252-1.529l8.181,1.566a1.926,1.926,0,0,1,1.528,2.253l-1.566,8.186a1.925,1.925,0,0,1-2.252,1.529" transform="translate(-24.888 -11.882)" fill="#263238"/><path d="M338.867,166.98c-.169.883-.964,1.529-2.388,1.256a3.51,3.51,0,0,1-1.8-.9l.625-.8a2.437,2.437,0,0,0,1.33.72c.577.111.98-.063,1.057-.469s-.132-.7-1.036-.871l-1.274-.244.793-2.758,3.041.583-.177.926-2.079-.4-.26.932.406.078c1.475.283,1.931,1.057,1.762,1.941" transform="translate(-25.259 -12.207)" fill="#fff"/><path d="M360.215,176.112l-8.18-1.567a1.925,1.925,0,0,1-1.529-2.254l1.566-8.185a1.924,1.924,0,0,1,2.252-1.529l8.18,1.566a1.926,1.926,0,0,1,1.529,2.253l-1.566,8.186a1.925,1.925,0,0,1-2.252,1.529" transform="translate(-26.45 -12.178)" fill="#455a64"/><g transform="translate(324.021 150.364)" opacity="0.2"><g clip-path="url(#i)"><path d="M360.215,176.112l-8.18-1.567a1.925,1.925,0,0,1-1.529-2.254l1.566-8.185a1.924,1.924,0,0,1,2.252-1.529l8.18,1.566a1.926,1.926,0,0,1,1.529,2.253l-1.566,8.186a1.925,1.925,0,0,1-2.252,1.529" transform="translate(-350.471 -162.542)"/></g></g><path d="M358.217,175.729l-8.18-1.566a1.926,1.926,0,0,1-1.529-2.253l1.566-8.186a1.923,1.923,0,0,1,2.252-1.528l8.18,1.566a1.927,1.927,0,0,1,1.529,2.253l-1.566,8.186a1.924,1.924,0,0,1-2.252,1.528" transform="translate(-26.299 -12.15)" fill="#263238"/><path d="M357.962,170.64a1.745,1.745,0,0,1-2.2,1.3c-1.374-.264-2.064-1.289-1.756-2.9a2.471,2.471,0,0,1,3.057-2.2,2.735,2.735,0,0,1,1.323.609l-.59.766a1.663,1.663,0,0,0-.885-.428,1.347,1.347,0,0,0-1.679,1.178,1.709,1.709,0,0,1,1.316-.206,1.611,1.611,0,0,1,1.419,1.883m-1.129-.157a.765.765,0,0,0-.7-.91.794.794,0,0,0-1.005.583c-.081.428.179.8.734.908a.758.758,0,0,0,.975-.581" transform="translate(-26.711 -12.496)" fill="#fff"/><path d="M378.918,179.692l-8.181-1.567a1.925,1.925,0,0,1-1.528-2.254l1.566-8.185a1.924,1.924,0,0,1,2.252-1.529l8.18,1.566a1.926,1.926,0,0,1,1.529,2.253l-1.566,8.186a1.925,1.925,0,0,1-2.252,1.529" transform="translate(-27.862 -12.447)" fill="#455a64"/><g transform="translate(341.311 153.675)" opacity="0.2"><g clip-path="url(#k)"><path d="M378.918,179.692l-8.181-1.567a1.925,1.925,0,0,1-1.528-2.254l1.566-8.185a1.924,1.924,0,0,1,2.252-1.529l8.18,1.566a1.926,1.926,0,0,1,1.529,2.253l-1.566,8.186a1.925,1.925,0,0,1-2.252,1.529" transform="translate(-369.173 -166.122)"/></g></g><path d="M376.92,179.309l-8.18-1.567a1.925,1.925,0,0,1-1.529-2.253l1.566-8.185a1.924,1.924,0,0,1,2.252-1.529l8.18,1.566a1.927,1.927,0,0,1,1.529,2.254l-1.566,8.186a1.925,1.925,0,0,1-2.252,1.529" transform="translate(-27.711 -12.418)" fill="#263238"/><rect width="5.439" height="0.463" transform="translate(343.863 161.424) rotate(-33.312)" fill="#fff"/><rect width="0.463" height="5.441" transform="matrix(0.827, -0.562, 0.562, 0.827, 344.543, 158.003)" fill="#fff"/><path d="M319.874,187.877l-8.181-1.567a1.925,1.925,0,0,1-1.528-2.253l1.566-8.185a1.924,1.924,0,0,1,2.252-1.529l8.18,1.566a1.926,1.926,0,0,1,1.528,2.253l-1.565,8.186a1.925,1.925,0,0,1-2.252,1.529" transform="translate(-23.406 -13.06)" fill="#455a64"/><g transform="translate(286.723 161.247)" opacity="0.2"><g clip-path="url(#n)"><path d="M319.874,187.877l-8.181-1.567a1.925,1.925,0,0,1-1.528-2.253l1.566-8.185a1.924,1.924,0,0,1,2.252-1.529l8.18,1.566a1.926,1.926,0,0,1,1.528,2.253l-1.565,8.186a1.925,1.925,0,0,1-2.252,1.529" transform="translate(-310.129 -174.307)"/></g></g><path d="M317.876,187.495l-8.181-1.567a1.925,1.925,0,0,1-1.528-2.253l1.566-8.185a1.925,1.925,0,0,1,2.252-1.529l8.18,1.566a1.927,1.927,0,0,1,1.529,2.253l-1.566,8.186a1.925,1.925,0,0,1-2.252,1.529" transform="translate(-23.255 -13.031)" fill="#263238"/><path d="M317.429,178.8l-.143.748-2.663,3.884-1.254-.24,2.562-3.7-1.652-.316-.155.812-1.025-.2.336-1.753Z" transform="translate(-23.63 -13.339)" fill="#fff"/><path d="M337.914,191.33l-8.18-1.567a1.925,1.925,0,0,1-1.529-2.253l1.566-8.185a1.924,1.924,0,0,1,2.252-1.529l8.18,1.566a1.926,1.926,0,0,1,1.529,2.253l-1.566,8.186a1.925,1.925,0,0,1-2.252,1.529" transform="translate(-24.767 -13.319)" fill="#455a64"/><g transform="translate(303.403 164.441)" opacity="0.2"><g clip-path="url(#r)"><path d="M337.914,191.33l-8.18-1.567a1.925,1.925,0,0,1-1.529-2.253l1.566-8.185a1.924,1.924,0,0,1,2.252-1.529l8.18,1.566a1.926,1.926,0,0,1,1.529,2.253l-1.566,8.186a1.925,1.925,0,0,1-2.252,1.529" transform="translate(-328.17 -177.76)"/></g></g><path d="M335.917,190.948l-8.18-1.567a1.926,1.926,0,0,1-1.529-2.253l1.566-8.185a1.924,1.924,0,0,1,2.252-1.529l8.18,1.566a1.926,1.926,0,0,1,1.529,2.254l-1.566,8.186a1.925,1.925,0,0,1-2.252,1.529" transform="translate(-24.616 -13.29)" fill="#263238"/><path d="M335.679,185.991c-.179.941-1.132,1.371-2.4,1.129s-1.98-.993-1.8-1.933a1.293,1.293,0,0,1,.98-1.031,1.175,1.175,0,0,1-.381-1.136c.168-.877,1.057-1.276,2.188-1.058,1.147.219,1.825.919,1.658,1.795a1.181,1.181,0,0,1-.78.914,1.285,1.285,0,0,1,.536,1.322m-1.16-.259c.085-.442-.227-.783-.8-.893s-.978.093-1.062.535.218.788.788.9.994-.1,1.078-.539m-1.3-2.444c-.072.377.182.671.652.76s.828-.085.9-.463-.192-.687-.663-.777-.815.087-.889.479" transform="translate(-25.015 -13.629)" fill="#fff"/><path d="M356.617,194.91l-8.181-1.567a1.926,1.926,0,0,1-1.528-2.253l1.566-8.185a1.924,1.924,0,0,1,2.252-1.529l8.18,1.566a1.926,1.926,0,0,1,1.529,2.253l-1.566,8.186a1.925,1.925,0,0,1-2.252,1.529" transform="translate(-26.179 -13.587)" fill="#455a64"/><g transform="translate(320.694 167.753)" opacity="0.2"><g clip-path="url(#r)"><path d="M356.617,194.91l-8.181-1.567a1.926,1.926,0,0,1-1.528-2.253l1.566-8.185a1.924,1.924,0,0,1,2.252-1.529l8.18,1.566a1.926,1.926,0,0,1,1.529,2.253l-1.566,8.186a1.925,1.925,0,0,1-2.252,1.529" transform="translate(-346.873 -181.34)"/></g></g><path d="M354.619,194.528l-8.18-1.567a1.925,1.925,0,0,1-1.529-2.253l1.566-8.185a1.925,1.925,0,0,1,2.252-1.529l8.18,1.566a1.926,1.926,0,0,1,1.529,2.253L356.871,193a1.925,1.925,0,0,1-2.252,1.529" transform="translate(-26.028 -13.558)" fill="#263238"/><path d="M354.4,188.375a2.466,2.466,0,0,1-3.056,2.2,2.722,2.722,0,0,1-1.317-.606l.59-.767a1.645,1.645,0,0,0,.885.428,1.353,1.353,0,0,0,1.681-1.185,1.737,1.737,0,0,1-1.325.212,1.611,1.611,0,0,1-1.419-1.883,1.745,1.745,0,0,1,2.2-1.3c1.381.265,2.064,1.29,1.756,2.9m-1.122-1.117a.777.777,0,0,0-.728-.907.764.764,0,1,0-.27,1.492.787.787,0,0,0,1-.585" transform="translate(-26.417 -13.893)" fill="#fff"/><path d="M375.32,198.49l-8.182-1.567a1.925,1.925,0,0,1-1.528-2.253l1.566-8.185a1.924,1.924,0,0,1,2.252-1.529l8.18,1.566a1.926,1.926,0,0,1,1.529,2.253l-1.566,8.186a1.924,1.924,0,0,1-2.251,1.529" transform="translate(-27.59 -13.855)" fill="#455a64"/><g transform="translate(337.985 171.065)" opacity="0.2"><g clip-path="url(#k)"><path d="M375.32,198.49l-8.182-1.567a1.925,1.925,0,0,1-1.528-2.253l1.566-8.185a1.924,1.924,0,0,1,2.252-1.529l8.18,1.566a1.926,1.926,0,0,1,1.529,2.253l-1.566,8.186a1.924,1.924,0,0,1-2.251,1.529" transform="translate(-365.575 -184.92)"/></g></g><path d="M373.322,198.107l-8.18-1.566a1.926,1.926,0,0,1-1.529-2.253l1.566-8.185a1.924,1.924,0,0,1,2.252-1.529l8.18,1.566a1.925,1.925,0,0,1,1.529,2.253l-1.566,8.186a1.923,1.923,0,0,1-2.252,1.529" transform="translate(-27.439 -13.827)" fill="#263238"/><rect width="0.465" height="5.438" transform="translate(340.222 177.231) rotate(-79.172)" fill="#fff"/><path d="M352.987,213.872l-8.18-1.566a1.926,1.926,0,0,1-1.529-2.254l1.566-8.186a1.926,1.926,0,0,1,2.252-1.529l8.181,1.567a1.925,1.925,0,0,1,1.528,2.253l-1.566,8.186a1.923,1.923,0,0,1-2.252,1.529" transform="translate(-25.905 -15.008)" fill="#455a64"/><g transform="translate(317.338 185.295)" opacity="0.2"><g clip-path="url(#i)"><path d="M352.987,213.872l-8.18-1.566a1.926,1.926,0,0,1-1.529-2.254l1.566-8.186a1.926,1.926,0,0,1,2.252-1.529l8.181,1.567a1.925,1.925,0,0,1,1.528,2.253l-1.566,8.186a1.923,1.923,0,0,1-2.252,1.529" transform="translate(-343.243 -200.303)"/></g></g><path d="M350.99,213.49l-8.18-1.567a1.925,1.925,0,0,1-1.529-2.253l1.566-8.185a1.924,1.924,0,0,1,2.252-1.529l8.18,1.566a1.926,1.926,0,0,1,1.529,2.254l-1.566,8.186a1.925,1.925,0,0,1-2.252,1.529" transform="translate(-25.754 -14.979)" fill="#263238"/><path d="M371.69,217.452l-8.181-1.567a1.925,1.925,0,0,1-1.528-2.253l1.566-8.185a1.924,1.924,0,0,1,2.252-1.529l8.18,1.566a1.926,1.926,0,0,1,1.529,2.253l-1.566,8.186a1.925,1.925,0,0,1-2.252,1.529" transform="translate(-27.316 -15.276)" fill="#adcc60"/><g transform="translate(334.63 188.606)" opacity="0.4"><g clip-path="url(#r)"><path d="M371.69,217.452l-8.181-1.567a1.925,1.925,0,0,1-1.528-2.253l1.566-8.185a1.924,1.924,0,0,1,2.252-1.529l8.18,1.566a1.926,1.926,0,0,1,1.529,2.253l-1.566,8.186a1.925,1.925,0,0,1-2.252,1.529" transform="translate(-361.946 -203.882)"/></g></g><path d="M369.692,217.07l-8.18-1.567a1.925,1.925,0,0,1-1.529-2.254l1.566-8.185a1.924,1.924,0,0,1,2.252-1.529l8.18,1.566a1.926,1.926,0,0,1,1.529,2.254l-1.566,8.186a1.925,1.925,0,0,1-2.252,1.529" transform="translate(-27.166 -15.247)" fill="#adcc60"/><rect width="0.465" height="5.438" transform="translate(336.993 194.113) rotate(-79.172)" fill="#fff"/><rect width="0.465" height="5.438" transform="translate(336.604 196.147) rotate(-79.172)" fill="#fff"/><path d="M330.072,209.638l-24.331-4.66a2.314,2.314,0,0,1-1.836-2.707l1.478-7.729a2.313,2.313,0,0,1,2.705-1.837l24.331,4.661a2.312,2.312,0,0,1,1.836,2.707l-1.478,7.728a2.312,2.312,0,0,1-2.705,1.837" transform="translate(-22.933 -14.435)" fill="#263238"/><path d="M319.178,201.2c.315-1.647,1.405-2.405,2.63-2.171s1.957,1.343,1.642,2.989-1.4,2.406-2.629,2.17-1.957-1.343-1.643-2.988m3.113.6c.216-1.133-.092-1.68-.67-1.79s-1.058.285-1.274,1.417.092,1.68.661,1.789,1.066-.284,1.283-1.416" transform="translate(-24.083 -14.909)" fill="#fff"/><rect width="5.441" height="0.464" transform="matrix(0.203, -0.979, 0.979, 0.203, 321.51, 194.361)" fill="#fff"/><rect width="0.464" height="5.439" transform="translate(319.575 191.46) rotate(-79.164)" fill="#fff"/><path d="M350.79,114.53l-1.427,7.457-.351-.068,1.363-7.127-1.873-.359.063-.33Z" transform="translate(-26.302 -8.549)" fill="#263238"/><path d="M356.5,123.059l-.063.33-5.047-.967.049-.255,3.81-2.606c1.091-.74,1.386-1.247,1.5-1.854.19-.992-.38-1.763-1.679-2.012a2.8,2.8,0,0,0-2.407.466l-.2-.28a3.2,3.2,0,0,1,2.68-.514c1.427.274,2.191,1.182,1.961,2.386-.134.7-.476,1.278-1.643,2.07L352,122.2Z" transform="translate(-26.52 -8.638)" fill="#263238"/><path d="M363.039,122.485c-.237,1.236-1.277,1.942-2.916,1.628a3.413,3.413,0,0,1-2.39-1.529l.24-.218a3.144,3.144,0,0,0,2.2,1.415c1.427.273,2.306-.288,2.512-1.364s-.384-1.918-1.96-2.219l-.415-.08.049-.255,2.9-2.581-4.11-.787.063-.33,4.578.877-.049.255-2.912,2.59c1.746.334,2.445,1.352,2.207,2.6" transform="translate(-26.998 -8.704)" fill="#263238"/><path d="M370.9,123.959l-1.618-.31-.412,2.152-.351-.068.411-2.152-4.28-.82.049-.255,5.087-4.261.415.08-5.021,4.207,3.812.73.362-1.9.351.068-.362,1.9,1.618.31Z" transform="translate(-27.521 -8.86)" fill="#263238"/><path d="M372.833,126.73a2.06,2.06,0,0,1-.14.382l-.656,1.354-.277-.054.611-1.407a.361.361,0,0,1-.241-.411.353.353,0,0,1,.418-.284.361.361,0,0,1,.285.419" transform="translate(-28.057 -9.463)" fill="#263238"/><path d="M380.574,125.81l-1.618-.31-.412,2.152-.351-.067.411-2.153-4.28-.82.049-.255,5.087-4.261.415.08-5.021,4.207,3.812.73.362-1.9.351.068-.362,1.9,1.618.31Z" transform="translate(-28.25 -8.998)" fill="#263238"/><path d="M386.629,126.966c-.232,1.215-1.253,1.991-2.946,1.667a3.42,3.42,0,0,1-2.379-1.527l.251-.216a3.122,3.122,0,0,0,2.191,1.413c1.459.279,2.319-.351,2.521-1.406.22-1.151-.332-1.963-2.461-2.371l-1.448-.278,1.067-3.439,3.843.736-.064.33-3.545-.679-.866,2.794,1.15.22c2.278.437,2.937,1.435,2.685,2.756" transform="translate(-28.777 -9.052)" fill="#263238"/></g><rect width="206.152" height="137.555" transform="translate(1.2 12.091)" fill="#fafafa"/><rect width="33.916" height="13.613" transform="translate(39.458 61.306)" fill="#adcc60"/><rect width="33.916" height="13.613" transform="translate(141.205 61.306)" fill="#adcc60"/><rect width="33.916" height="13.613" transform="translate(141.205 88.344)" fill="#adcc60"/><rect width="33.916" height="13.613" transform="translate(141.205 101.863)" fill="#adcc60"/><rect width="33.916" height="13.613" transform="translate(73.373 88.588)" fill="#455a64"/><rect width="33.916" height="13.613" transform="translate(107.234 102.367)" fill="#455a64"/><rect width="33.916" height="14.165" transform="translate(73.373 129.372)" fill="#ebebeb"/><rect width="33.916" height="13.613" transform="translate(141.205 129.561)" fill="#adcc60"/><rect width="183.122" height="13.304" transform="translate(17.967 48.001)" fill="#e0e0e0"/><rect width="32.105" height="95.821" transform="translate(7.353 48.001)" fill="#e0e0e0"/><path d="M40.483,148.135H7.453V51.389h33.03ZM8.378,147.21H39.558v-94.9H8.378Z" transform="translate(-0.562 -3.85)" fill="#e0e0e0"/><path d="M0,0H206.152V15.605H0Z" transform="translate(1.2 12.091)" fill="#adcc60"/><rect width="31.74" height="8.931" transform="translate(7.718 33.383)" fill="#ebebeb"/><rect width="30.609" height="8.931" transform="translate(43.175 33.383)" fill="#ebebeb"/><rect width="30.609" height="8.931" transform="translate(76.745 33.383)" fill="#ebebeb"/><rect width="30.609" height="8.931" transform="translate(110.316 33.383)" fill="#ebebeb"/><rect width="30.609" height="8.931" transform="translate(143.886 33.383)" fill="#ebebeb"/><rect width="25.16" height="8.931" transform="translate(177.458 33.383)" fill="#ebebeb"/><g clip-path="url(#a)"><path d="M7.938,147.4s.325-.009.948-.014l2.767-.014,10.71-.028,40.127-.063,139.185-.109-.227.228c0-29.546-.009-61.863-.014-95.521V51.87l.241.241L7.938,52.048l.178-.179c-.041,29.445-.073,53.307-.1,69.817-.018,8.262-.034,14.682-.044,19.045-.008,2.178-.015,3.84-.019,4.967s-.018,1.706-.018,1.706-.013-.56-.018-1.669-.011-2.772-.019-4.935c-.01-4.353-.026-10.76-.045-19C7.833,105.26,7.8,81.361,7.76,51.87v-.178h.178l193.737-.062h.24v.254c0,33.658-.009,65.975-.014,95.521v.228h-.227l-139.337-.109-40.076-.062L11.6,147.433l-2.741-.014c-.614,0-.92-.014-.92-.014" transform="translate(-0.586 -3.868)" fill="#263238"/><path d="M202.084,66.252c0,.133-43.372.241-96.864.241-53.509,0-96.873-.107-96.873-.241s43.364-.241,96.873-.241c53.491,0,96.864.107,96.864.241" transform="translate(-0.63 -4.946)" fill="#263238"/><path d="M202.084,80.968c0,.133-43.372.241-96.864.241-53.509,0-96.873-.107-96.873-.241s43.364-.241,96.873-.241c53.491,0,96.864.107,96.864.241" transform="translate(-0.63 -6.048)" fill="#263238"/><path d="M202.084,95.683c0,.133-43.372.241-96.864.241-53.509,0-96.873-.107-96.873-.241s43.364-.24,96.873-.24c53.491,0,96.864.107,96.864.24" transform="translate(-0.63 -7.151)" fill="#263238"/><path d="M202.084,110.4c0,.133-43.372.241-96.864.241-53.509,0-96.873-.107-96.873-.241s43.364-.241,96.873-.241c53.491,0,96.864.107,96.864.241" transform="translate(-0.63 -8.254)" fill="#263238"/><path d="M202.084,125.115c0,.133-43.372.241-96.864.241-53.509,0-96.873-.107-96.873-.241s43.364-.241,96.873-.241c53.491,0,96.864.107,96.864.241" transform="translate(-0.63 -9.356)" fill="#263238"/><path d="M202.084,139.831c0,.133-43.372.24-96.864.24-53.509,0-96.873-.107-96.873-.24s43.364-.241,96.873-.241c53.491,0,96.864.107,96.864.241" transform="translate(-0.63 -10.459)" fill="#263238"/><path d="M42.659,147.753c-.133,0-.24-21.332-.24-47.64s.107-47.645.24-47.645.24,21.328.24,47.645-.107,47.64-.24,47.64" transform="translate(-3.201 -3.931)" fill="#263238"/><path d="M79.344,147.468c-.133,0-.24-21.268-.24-47.5s.107-47.5.24-47.5.24,21.264.24,47.5-.107,47.5-.24,47.5" transform="translate(-5.97 -3.931)" fill="#263238"/><path d="M116.028,147.753c-.133,0-.24-21.332-.24-47.64s.107-47.645.24-47.645.24,21.328.24,47.645-.107,47.64-.24,47.64" transform="translate(-8.739 -3.931)" fill="#263238"/><path d="M152.713,147.753c-.133,0-.24-21.332-.24-47.64s.107-47.645.24-47.645.24,21.328.24,47.645-.107,47.64-.24,47.64" transform="translate(-11.507 -3.931)" fill="#263238"/><path d="M189.4,147.753c-.133,0-.24-21.332-.24-47.64s.107-47.645.24-47.645.24,21.328.24,47.645-.107,47.64-.24,47.64" transform="translate(-14.276 -3.931)" fill="#263238"/><path d="M14.013,21.34a1.967,1.967,0,1,1-1.966-2.026,2,2,0,0,1,1.966,2.026" transform="translate(-0.761 -1.447)" fill="#fff"/><path d="M21.24,21.34a1.967,1.967,0,1,1-1.966-2.026A2,2,0,0,1,21.24,21.34" transform="translate(-1.306 -1.447)" fill="#fff"/><path d="M28.466,21.34A1.967,1.967,0,1,1,26.5,19.314a2,2,0,0,1,1.966,2.026" transform="translate(-1.852 -1.447)" fill="#fff"/><path d="M207.43,150.605c0-1.57-.075-53.755-.192-137.555l.192.192L1.3,13.291H1.278l.241-.241C1.512,62.038,1.5,108.63,1.5,150.605l-.221-.221,148.548.109,42.424.059,11.277.027,2.909.013c.655,0,.994.013.994.013s-.322.008-.968.013l-2.884.013-11.233.027-42.374.059-148.693.109h-.22v-.221c-.006-41.975-.013-88.568-.02-137.555v-.241H1.3l206.135.049h.192v.192c-.117,83.8-.19,135.986-.192,137.555" transform="translate(-0.078 -0.96)" fill="#263238"/></g><g clip-path="url(#a)"><path d="M201.967,188.933l-10.692,13.291-44.589,12.421,6.66,72.066c2.054,28.247,4.943,35.171,6.934,53.952v15.313H286.926l17.681-146.3-43.673-10.049-9.4-10.7Z" transform="translate(-11.071 -14.156)" fill="#adcc60"/><path d="M204.434,215.883l5.455,72.168,5.832,36.633,42.815-119.555L224,246.089Z" transform="translate(-15.429 -15.369)" fill="#fff"/><path d="M215.973,329.49a2.306,2.306,0,0,1,.168-.351l.535-1.006,2.1-3.842c1.855-3.349,4.519-8.156,7.8-14.088l25.91-46.389,14.124-25.171.051.278-6.147-5.2-.227-.191.254-.15,8.759-5.167-.091.182c-.957-8.534-1.738-15.5-2.284-20.36-.257-2.4-.458-4.278-.6-5.583-.061-.622-.108-1.106-.143-1.458-.029-.329-.03-.5-.03-.5s.038.167.085.494c.048.351.113.833.2,1.452.164,1.3.4,3.176.7,5.571.584,4.855,1.421,11.815,2.446,20.341l.015.12-.1.062-8.737,5.206.029-.34,6.164,5.177.141.118-.09.161-14.093,25.19c-10.161,18.079-19.36,34.446-26.032,46.319l-7.939,14.013c-.937,1.632-1.669,2.908-2.18,3.8l-.578.982a2.312,2.312,0,0,1-.211.327" transform="translate(-16.3 -15.022)" fill="#263238"/><path d="M213.786,329.7a1.959,1.959,0,0,1-.123-.34c-.078-.249-.181-.583-.314-1.007-.273-.915-.663-2.22-1.161-3.889-1-3.409-2.426-8.3-4.188-14.326-1.736-6.061-3.889-13.233-6.1-21.285-2.063-8.081-4.031-17.029-6.113-26.416-2.824-12.876-5.377-24.933-7.5-35.137l-.037-.178.17-.059,5.834-2.043-.026.351-7.1-3.767-.132-.07.055-.138c2.232-5.608,4.031-10.13,5.284-13.279l1.451-3.582.387-.924a1.862,1.862,0,0,1,.147-.309,1.842,1.842,0,0,1-.1.326c-.086.234-.2.546-.344.943-.323.85-.781,2.062-1.369,3.613-1.219,3.161-2.97,7.7-5.143,13.333l-.078-.208,7.124,3.722.389.2-.414.147-5.824,2.069.132-.237c2.163,10.194,4.741,22.245,7.564,35.119,2.081,9.385,4.037,18.337,6.072,26.409,2.179,8.02,4.308,15.234,6,21.3,1.7,6.047,3.081,10.951,4.041,14.37.462,1.679.823,2.993,1.076,3.913.113.431.2.769.267,1.021a1.94,1.94,0,0,1,.076.352" transform="translate(-14.113 -15.232)" fill="#263238"/><path d="M140.3,216.729S130.5,221.5,123.586,243.5c-5.02,15.982-25.437,71.016-25.437,71.016l-22.611-6.6s-16.644,20.738-12.876,27.965,31.314,22.176,31.314,22.176h32.257a26.5,26.5,0,0,0,9.22-13.447L153.9,282.464Z" transform="translate(-4.687 -16.238)" fill="#adcc60"/><path d="M315.965,211.361a39.746,39.746,0,0,1,14.2,14.59c5.633,10.02,50.587,83.228,54.313,100.587,5.563,25.926-5.553,31.094-5.553,31.094H363.386l-38.451-.218L320.083,327.3l17.094-3.649L305.5,288.5l-2.1,3.585L297.2,241.9Z" transform="translate(-22.43 -15.836)" fill="#adcc60"/><path d="M151.095,249.406c.132-.011,1.278,12.439,2.558,27.8s2.211,27.835,2.079,27.846-1.278-12.436-2.559-27.806-2.211-27.832-2.078-27.843" transform="translate(-11.402 -18.687)" fill="#263238"/><path d="M314.34,234.346c.132.016-1.639,15.55-3.955,34.69s-4.575,34.661-4.706,34.645,1.91-15.555,4.228-34.7,4.3-34.649,4.433-34.633" transform="translate(-23.069 -17.558)" fill="#263238"/><path d="M327.535,366.586a7.011,7.011,0,0,1,.435-.552c.279-.365.692-.9,1.155-1.646a26.961,26.961,0,0,0,2.976-6.735,32.859,32.859,0,0,0,1.071-4.981,23.384,23.384,0,0,0,.252-5.806,13.709,13.709,0,0,0-2.143-5.961,16.174,16.174,0,0,0-4.874-4.772c-.139-.087-.286-.173-.411-.241l-.514-.281.558-.164a120.8,120.8,0,0,1,23.748-4.435c3.078-.263,5.572-.379,7.3-.433.862-.031,1.531-.035,1.984-.041a3.959,3.959,0,0,1,.693.02,3.717,3.717,0,0,1-.69.076l-1.978.129c-1.719.111-4.207.279-7.273.585a128.848,128.848,0,0,0-23.646,4.561l.044-.445c.149.081.294.166.442.259a16.536,16.536,0,0,1,5.017,4.925,14.075,14.075,0,0,1,2.187,6.168,23.418,23.418,0,0,1-.3,5.914,32.312,32.312,0,0,1-1.141,5.021,25.588,25.588,0,0,1-3.145,6.739,15.309,15.309,0,0,1-1.237,1.6,2.675,2.675,0,0,1-.509.49" transform="translate(-24.564 -24.766)" fill="#263238"/><path d="M216.074,367.264c-.133,0-.24-6.2-.24-13.843s.107-13.845.24-13.845.24,6.2.24,13.845-.107,13.843-.24,13.843" transform="translate(-16.289 -25.443)" fill="#263238"/><path d="M290.993,302.343a6.56,6.56,0,0,1-.029-.657c-.009-.454-.02-1.068-.035-1.848-.019-1.631-.045-3.951-.079-6.871l.142.142-38.314.1c.106-.107-.242.241.238-.24v2.393q0,1.189,0,2.364,0,2.346,0,4.62l-.237-.236,27.272.106,8.077.068,2.188.031.575.015a1.175,1.175,0,0,1,.205.016,6.085,6.085,0,0,1-.72.031l-2.137.031-8.022.068-27.437.106h-.236v-.237q0-2.272,0-4.62,0-1.174,0-2.364v-2.393c.482-.482.135-.133.243-.241l38.314.1h.144l0,.142c-.033,2.956-.06,5.305-.079,6.957-.015.766-.026,1.369-.035,1.816a4.739,4.739,0,0,1-.029.6" transform="translate(-19.051 -21.931)" fill="#263238"/><path d="M150.675,243c-.13.028-1.387-5.32-2.806-11.944s-2.465-12.019-2.334-12.046,1.386,5.319,2.805,11.945,2.466,12.018,2.335,12.045" transform="translate(-10.983 -16.409)" fill="#263238"/><g transform="translate(201.797 213.356)" opacity="0.3"><g clip-path="url(#y)"><path d="M218.27,327.957l54.688-83.928-7.892-7.629,4.511-5.764-8.748,5.187,6.156,5.187Z" transform="translate(-218.27 -230.636)"/></g></g><g transform="translate(66.704 313.491)" opacity="0.3"><g clip-path="url(#z)"><path d="M72.149,338.882v4.661l62.072.2v-4.858Z" transform="translate(-72.149 -338.882)"/></g></g><path d="M153.943,146.9a9.193,9.193,0,0,0,8.641-3.861c-2.229.342-4.63.66-6.638-.366s-3.145-3.985-1.572-5.6c1.23-1.26,3.254-1.043,5.01-1.172a10.834,10.834,0,0,0,9.215-7.077c1.486-4.271.128-8.929-.407-13.419A36.969,36.969,0,0,1,183.654,81.3l28.112-16.26c10.2,13.057,13.374,30.653,11.261,47.087S213.946,144,205.571,158.3a54.834,54.834,0,0,1-8.483,11.679c-3.443,3.381-7.836,5.987-12.634,6.486a13.044,13.044,0,0,1,2.08-11.772,28.363,28.363,0,0,1-20.906-7.493l6.025-4.624a22,22,0,0,1-17.711-5.671" transform="translate(-11.595 -4.873)" fill="#263238"/><path d="M264.229,101.1c-.495-11.755-7.81-21.594-19.116-24.826L209.87,66.2c-15.3-2.1-26.079,16.5-27.523,31.874-1.6,17.086-2.807,35.131-1.173,47.966,3.288,25.811,22.862,29.685,22.862,29.685,0-.038-.653,23.261-.854,30.764l17.927,37.5,34.737-47.973,8.465-94.6c.022-.439-.056.272-.081-.315" transform="translate(-13.615 -4.948)" fill="#af7e69"/><path d="M189.831,123.441a3.294,3.294,0,0,0,3.072,3.422A3.151,3.151,0,0,0,196.388,124a3.3,3.3,0,0,0-3.069-3.423,3.153,3.153,0,0,0-3.488,2.867" transform="translate(-14.326 -9.033)" fill="#263238"/><path d="M186.36,111.4c.395.442,2.946-1.327,6.488-1.209,3.54.067,6.083,1.97,6.482,1.549.194-.187-.2-.975-1.3-1.834a9.031,9.031,0,0,0-5.172-1.772,8.663,8.663,0,0,0-5.18,1.5c-1.116.8-1.509,1.568-1.314,1.767" transform="translate(-14.061 -8.102)" fill="#263238"/><path d="M222.232,123.442a3.3,3.3,0,0,0,3.072,3.421A3.151,3.151,0,0,0,228.789,124a3.3,3.3,0,0,0-3.069-3.423,3.153,3.153,0,0,0-3.487,2.868" transform="translate(-16.771 -9.033)" fill="#263238"/><path d="M222.752,112.437c.4.442,2.95-1.327,6.49-1.209,3.539.068,6.083,1.97,6.481,1.549.194-.186-.193-.974-1.3-1.834a9.036,9.036,0,0,0-5.172-1.772,8.685,8.685,0,0,0-5.181,1.5c-1.112.8-1.507,1.569-1.314,1.767" transform="translate(-16.808 -8.179)" fill="#263238"/><path d="M209.187,140.068c.022-.2-2.168-.648-5.722-1.215-.9-.121-1.752-.327-1.886-.949a4.609,4.609,0,0,1,.687-2.665q1.377-3.246,2.886-6.81c4.016-9.7,6.954-17.686,6.563-17.843s-3.966,7.574-7.982,17.273q-1.453,3.587-2.776,6.854c-.374,1.018-1,2.167-.578,3.538a2.269,2.269,0,0,0,1.446,1.369,6.136,6.136,0,0,0,1.53.261c3.585.3,5.813.389,5.832.187" transform="translate(-15.112 -8.285)" fill="#263238"/><path d="M240.261,175.776s-8.858,17.405-34.476,14.21l.165-6.043a64.662,64.662,0,0,0,34.31-8.167" transform="translate(-15.531 -13.17)" fill="#7c5142"/><path d="M224.353,100.143c.319.974,3.87.626,8.011,1.255,4.154.547,7.467,1.867,8.045,1.019.26-.406-.3-1.331-1.623-2.305a14.094,14.094,0,0,0-12.233-1.735c-1.545.569-2.335,1.3-2.2,1.765" transform="translate(-16.931 -7.319)" fill="#263238"/><path d="M187.942,99.7c.6.823,3.064.064,6,.115,2.939-.053,5.4.708,6-.117.263-.4-.1-1.219-1.166-2.016a8.682,8.682,0,0,0-9.67,0c-1.063.8-1.428,1.614-1.165,2.016" transform="translate(-14.178 -7.208)" fill="#263238"/><path d="M223.546,149.643a4.623,4.623,0,0,0-4.676-3.648,4.834,4.834,0,0,0-3.792,2.538,5.95,5.95,0,0,0-.343,4.621l.065.334a5.265,5.265,0,0,0,5.889,1.431,4.927,4.927,0,0,0,2.857-5.276" transform="translate(-16.183 -10.938)" fill="#7c5142"/><path d="M212.051,153.3c.011-.538,3.588-.265,6.367-3.129s2.686-6.707,3.188-6.695c.228-.032.628.9.545,2.518a8.942,8.942,0,0,1-2.457,5.6,7.782,7.782,0,0,1-5.322,2.394c-1.507.019-2.362-.45-2.321-.693" transform="translate(-16.004 -10.75)" fill="#263238"/><path d="M251.309,58.516c-3.965-6.3-13.332-12.883-20.664-14.165-8.358-1.463-13.395-.029-18.891,4.993,0,0-4.277,4.13-8.286,4.909s-7.359.118-12.142,2.566c-6.532,3.343-9.4,12.082-12.422,18.77-3.761,8.31-9.121,15.958-11.573,24.744s-1.148,19.582,6.252,24.912c-1.269-6.732-2.326-14.139.446-20.232a17.679,17.679,0,0,0,.448,7.292c1.385-3.955,2.844-8.033,5.713-11.086,2.706-2.879,6.447-4.6,9.235-7.4,4.1-4.113,5.982-10.382,10.958-13.366,5.177-3.1,11.726-1.556,17.762-1.527a34.023,34.023,0,0,0,26.46-12.756l-1.5-.127a42.14,42.14,0,0,0,8.205-7.529" transform="translate(-12.543 -3.282)" fill="#263238"/><path d="M294.394,122.381c-2.3-7.554-6.35-14.47-8.881-21.951-2.466-7.287-3.484-15.075-6.757-22.035-4.4-9.365-12.635-21.494-25.463-20.825l-.875.771a27.4,27.4,0,0,0-12.927,1.544l-.2,10-2.458,2.163c1.031,1.985,2.006,3.906,2.951,5.791a63.225,63.225,0,0,0,3.27,11.011,28.54,28.54,0,0,0,6.154,9.362c22.094,52.924,2.054,56.269,12.008,86.6l6.261-17.365A30.94,30.94,0,0,0,279.864,154.1l1.1,5.5a31.916,31.916,0,0,0,8.631-19.712l2.872,5.28c4.544-6.458,4.23-15.24,1.925-22.794" transform="translate(-17.874 -4.311)" fill="#263238"/><path d="M258.268,125.425c.344-.861,16.313-6.118,16.043,10.7-.263,16.338-16.64,12.652-16.66,12.182s.617-22.882.617-22.882" transform="translate(-19.445 -9.289)" fill="#af7e69"/><path d="M263.227,142.651c.073-.05.281.205.757.434a2.837,2.837,0,0,0,2.126.085c1.736-.6,3.241-3.312,3.377-6.255a9.4,9.4,0,0,0-.718-4.089,3.286,3.286,0,0,0-2.1-2.226,1.446,1.446,0,0,0-1.693.747c-.227.452-.13.781-.217.808-.047.04-.346-.281-.2-.953a1.807,1.807,0,0,1,.662-1.011,2.14,2.14,0,0,1,1.58-.386,4,4,0,0,1,2.922,2.589,9.659,9.659,0,0,1,.9,4.573c-.167,3.29-1.911,6.338-4.283,6.975a3.046,3.046,0,0,1-2.593-.482c-.5-.414-.577-.781-.52-.809" transform="translate(-19.865 -9.724)" fill="#7c5142"/><path d="M264.924,146.868a3.214,3.214,0,1,1-.769.22" transform="translate(-19.79 -11.002)" fill="#fff"/><path d="M264.132,147.078a4.4,4.4,0,0,0-1.53,2.152,2.769,2.769,0,0,0,.565,2.582,2.855,2.855,0,0,0,5.065-1.456,2.772,2.772,0,0,0-.891-2.488,4.385,4.385,0,0,0-2.44-1.009c-.008-.041.255-.162.77-.159a3.336,3.336,0,0,1,2.016.772,3.267,3.267,0,0,1,1.225,2.982,3.507,3.507,0,0,1-6.271,1.8,3.272,3.272,0,0,1-.544-3.179,3.344,3.344,0,0,1,1.3-1.724c.434-.277.723-.314.736-.275" transform="translate(-19.766 -10.991)" fill="#263238"/><path d="M238.24,76.169c.324.129,1.832-5.408,6.381-10.546,4.476-5.205,9.755-7.448,9.583-7.752-.047-.117-1.423.274-3.443,1.38a26.481,26.481,0,0,0-11.619,13.317c-.823,2.153-1.023,3.569-.9,3.6" transform="translate(-17.978 -4.335)" fill="#455a64"/><path d="M76,338.1l-12.184-14.33s-8.55,0-12.825-4.064-12.184-7.913-8.978-15.185c0,0-3.843-4.492-.745-9.411l.1-1.284s-9.62-4.064-6.841-8.982,8.123-2.781,8.123-2.781-10.5-7.1-12.4-9.047c-5.062-5.2.38-8.7,6.011-5.589,9.314,5.153,40.8,19.984,42.939,30.678v4.659s8.764,10.74,8.764,11.382S87.33,331.472,76,338.1" transform="translate(-2.132 -19.949)" fill="#af7e69"/><path d="M13.275,227.071c-.386-.482,47.817,77.26,47.817,77.26l2.187,26.084H138.5l-6.978-29.693s-13-34.877-12.856-35.284c.287-.792-24.335-39.55-24.335-39.55Z" transform="translate(-1.002 -16.925)" fill="#fff"/><path d="M13.275,227.055s.5-.025,1.475-.048l4.284-.089,16.325-.29,58.968-.95.109,0,.058.093c6.444,10.167,13.53,21.308,20.872,33.344.911,1.51,1.828,3.031,2.712,4.593.219.393.437.784.639,1.2a2.713,2.713,0,0,1,.144.342.394.394,0,0,1,.026.167c-.019.122.006.078.012.087s.009,0,.008,0l.023.078.2.634q.442,1.274.888,2.558l3.77,10.376,7.956,21.475.006.014,0,.015c2.118,9.007,4.34,18.453,6.6,28.068.128.545.256,1.09.382,1.624l.069.3h-.3l-75.221-.019h-.2l-.017-.2q-1.139-13.689-2.171-26.086l.03.091c-14.373-23.266-26.309-42.587-34.66-56.1-4.15-6.759-7.408-12.064-9.635-15.689-1.1-1.808-1.94-3.2-2.515-4.141l-.633-1.067a2.425,2.425,0,0,1-.2-.369l47.99,77.152.026.042,0,.049q1.047,12.382,2.205,26.083l-.22-.2,75.221-.02-.234.3c-.126-.535-.254-1.08-.382-1.624-2.259-9.614-4.478-19.062-6.595-28.069l.008.029-7.944-21.481q-1.907-5.259-3.764-10.383-.447-1.289-.889-2.569l-.205-.655-.025-.084a.925.925,0,0,1-.02-.164v-.082c-.169-.073.246.056.145.024a.342.342,0,0,0-.129-.019c-.064.006-.014.039-.028.031l-.011-.03a2.542,2.542,0,0,0-.118-.278c-.19-.392-.408-.784-.624-1.173-.876-1.553-1.792-3.075-2.7-4.583-7.325-12.036-14.4-23.19-20.821-33.366l.168.091-59.044.771-16.3.185-4.262.036c-.962.006-1.45-.006-1.45-.006" transform="translate(-1.002 -16.909)" fill="#263238"/><path d="M114.6,270.635a3.467,3.467,0,0,1-.672.03L112,270.656l-7.075-.134c-5.973-.136-14.224-.363-23.337-.51s-17.369-.13-23.337.059c-2.984.08-5.4.2-7.064.3l-1.92.111a3.522,3.522,0,0,1-.673.007,3.449,3.449,0,0,1,.664-.1l1.915-.2c1.665-.153,4.079-.328,7.066-.452,5.974-.277,14.236-.338,23.357-.2s17.369.428,23.34.651l7.071.287,1.922.1a3.566,3.566,0,0,1,.669.068" transform="translate(-3.667 -20.189)" fill="#263238"/><path d="M126.113,307.693c-.016.132-10.654-1.031-23.759-2.6s-23.721-2.943-23.7-3.075,10.651,1.03,23.76,2.6,23.718,2.943,23.7,3.075" transform="translate(-5.936 -22.628)" fill="#263238"/><path d="M55.02,312.919l14.074-.9c1.48-.094,3.106-.253,4.137-1.32,1.283-1.327.655-4.339-.963-5.228l-16.127-3.888" transform="translate(-4.152 -22.596)" fill="#af7e69"/><path d="M56.14,301.587a7.208,7.208,0,0,1,1.246.215l3.406.749,11.53,2.7.032.007.026.015a3.349,3.349,0,0,1,1.353,1.559,4.564,4.564,0,0,1,.417,2.056,2.932,2.932,0,0,1-.831,2.066,4.186,4.186,0,0,1-1.891,1,23.09,23.09,0,0,1-3.875.4l-6.52.364-4.4.2a10.437,10.437,0,0,1-1.617.009,10.271,10.271,0,0,1,1.6-.2l4.388-.356,6.513-.467a23.609,23.609,0,0,0,3.783-.412,3.722,3.722,0,0,0,1.678-.884,2.458,2.458,0,0,0,.682-1.737,3.624,3.624,0,0,0-1.514-3.184l.058.023-11.492-2.857-3.373-.885a7.214,7.214,0,0,1-1.207-.377" transform="translate(-4.152 -22.596)" fill="#7c5142"/><path d="M61.059,296.124a69.275,69.275,0,0,1,12.5,3.525,2.775,2.775,0,0,1,1.848,3.227,2.239,2.239,0,0,1-.925,1.722,4.452,4.452,0,0,1-1.973.546,50.949,50.949,0,0,1-11.963-.727c-4.031-.558-9.617,0-11.952,1.233" transform="translate(-3.667 -22.187)" fill="#af7e69"/><path d="M48.595,305.65a1.665,1.665,0,0,1,.4-.241,9.1,9.1,0,0,1,1.24-.479,22.736,22.736,0,0,1,4.8-.83,30.052,30.052,0,0,1,3.371-.07,37.426,37.426,0,0,1,3.845.4,51.392,51.392,0,0,0,8.747.579,18.9,18.9,0,0,0,2.269-.208,2.131,2.131,0,0,0,1.656-1.042,2.879,2.879,0,0,0-.751-3.543,9.187,9.187,0,0,0-1.763-.763l-1.755-.628c-1.136-.394-2.2-.734-3.183-1.028-1.96-.585-3.57-.978-4.685-1.24a15.36,15.36,0,0,1-1.729-.429,1.657,1.657,0,0,1,.461.036c.3.038.741.108,1.305.21,1.13.205,2.759.55,4.74,1.1.991.273,2.07.6,3.217.975l1.771.61a9.324,9.324,0,0,1,1.868.794,2.736,2.736,0,0,1,1.19,1.849,3.935,3.935,0,0,1-.266,2.272,2.054,2.054,0,0,1-.849.9,3.808,3.808,0,0,1-1.136.4,18.954,18.954,0,0,1-2.342.218,49.22,49.22,0,0,1-8.826-.621c-1.348-.191-2.607-.389-3.8-.437a31.274,31.274,0,0,0-3.331.012,25.609,25.609,0,0,0-4.775.67c-1.107.279-1.668.579-1.688.539" transform="translate(-3.667 -22.187)" fill="#7c5142"/><path d="M44.467,283.51l11.1,6.192a11.288,11.288,0,0,1,4.425,3.578c1,1.638.919,4.108-.688,5.158-1.26.824-2.921.514-4.379.144a107.331,107.331,0,0,1-12.2-3.88" transform="translate(-3.224 -21.242)" fill="#af7e69"/><path d="M42.717,294.7a11.478,11.478,0,0,1,1.559.486c.995.334,2.432.821,4.224,1.373s3.936,1.171,6.339,1.772a6.847,6.847,0,0,0,3.7.209,2.576,2.576,0,0,0,1.43-1.167,3.548,3.548,0,0,0,.423-1.913,4.909,4.909,0,0,0-1.783-3.451,17.2,17.2,0,0,0-3.187-2.131l-5.735-3.26-3.845-2.234a10.565,10.565,0,0,1-1.378-.876,10.385,10.385,0,0,1,1.469.712l3.921,2.1,5.785,3.169a17.242,17.242,0,0,1,3.288,2.17,6.538,6.538,0,0,1,1.348,1.647,4.818,4.818,0,0,1,.6,2.132,4,4,0,0,1-.489,2.173,3.043,3.043,0,0,1-1.693,1.375,7.171,7.171,0,0,1-3.964-.226c-2.407-.626-4.551-1.28-6.334-1.877s-3.207-1.133-4.184-1.521c-.488-.2-.864-.353-1.117-.467a1.413,1.413,0,0,1-.377-.2" transform="translate(-3.224 -21.242)" fill="#7c5142"/><path d="M327.664,364.415l-5.273-1.492-16.756-1.564-4.685-6.232,3.265-13.45,20.938-4.982c9.672,6.882,7.06,18.353,2.511,27.721" transform="translate(-22.713 -25.227)" fill="#af7e69"/><path d="M276.2,330.157a14.422,14.422,0,0,0-5.882.462,7.81,7.81,0,0,0-4.658,6.1c-.542,4.314-.712,7.811-1.021,11.826a3.779,3.779,0,0,0,1.1,2.837c1.317,1.347,3.713.9,5.074-.406s1.974-3.177,2.629-4.944,1.351-6,2.374-6.365c2.917-1.052,6.886,3.975,9.08,1.509l3.979-9.711c-6.165-.6-6.508-.708-12.672-1.312" transform="translate(-19.972 -24.73)" fill="#af7e69"/><path d="M276.18,330.151a.8.8,0,0,1,.227,0l.658.041,2.527.209,9.277.891.234.022-.089.219c-1.145,2.828-2.478,6.121-3.939,9.727l-.013.033-.026.03a2.267,2.267,0,0,1-1.91.746,6.038,6.038,0,0,1-1.968-.595,21.513,21.513,0,0,0-3.732-1.623l-.493-.079-.49,0a3.763,3.763,0,0,0-.473.1c-.17.031-.208.1-.325.216a6.527,6.527,0,0,0-.824,1.9c-.434,1.385-.713,2.846-1.237,4.3a17.522,17.522,0,0,1-1.714,3.773,5.875,5.875,0,0,1-1.427,1.512,4.8,4.8,0,0,1-1.9.8,3.668,3.668,0,0,1-2.035-.177,3.287,3.287,0,0,1-1.5-1.337,3.984,3.984,0,0,1-.614-1.856c-.015-.677.078-1.234.109-1.846.178-2.389.335-4.663.544-6.788q.154-1.593.338-3.07a8.278,8.278,0,0,1,.727-2.792,7.461,7.461,0,0,1,6.922-4.5,17.393,17.393,0,0,1,2.34.044c.266.023.469.046.6.068a.651.651,0,0,1,.2.043,6.791,6.791,0,0,1-.814-.013,21.592,21.592,0,0,0-2.323.045,7.952,7.952,0,0,0-3.482.935,7.736,7.736,0,0,0-3.142,3.519,7.957,7.957,0,0,0-.668,2.694q-.169,1.472-.311,3.064c-.19,2.12-.332,4.391-.5,6.784-.028.585-.117,1.235-.1,1.785a3.537,3.537,0,0,0,.552,1.639,2.82,2.82,0,0,0,1.29,1.15,3.19,3.19,0,0,0,1.774.143,4.575,4.575,0,0,0,3.012-2.113,17.238,17.238,0,0,0,1.66-3.671c.5-1.389.788-2.863,1.231-4.271a6.777,6.777,0,0,1,.918-2.063,1.129,1.129,0,0,1,.24-.227.792.792,0,0,1,.308-.138,4.3,4.3,0,0,1,.571-.115c.191,0,.385-.009.574,0l.553.09a21.372,21.372,0,0,1,3.821,1.668,5.666,5.666,0,0,0,1.81.563,1.818,1.818,0,0,0,1.551-.59l-.039.062c1.489-3.595,2.85-6.877,4.018-9.695l.145.241c-3.915-.4-7.077-.793-9.263-1.047l-2.517-.3-.654-.09a.754.754,0,0,1-.221-.047" transform="translate(-19.954 -24.723)" fill="#7c5142"/><path d="M312,331.076s-2.077-.648-4.887,1.4c0,0-1.05-4.625-4.742-5.535-2.678-.661-6.086,2.09-6.086,2.09s-2.312-4.627-8.479-2.7c-5.1,1.595-15.8,33.249-16.721,35.372-1.052,2.429,3.275,5.473,5.661,3.021,2.5-2.571,10.909-16.631,10.909-16.631l-5.59,19.72a3.783,3.783,0,0,0,.055,1.948,4.108,4.108,0,0,0,7.333.576c3.469-4.7,7-14.391,7-14.391l3.409-7.436s-6.363,19.7-4.05,21.5,5.281,1.1,7.4-3.527,9.828-19.28,9.828-19.28l3.661-1.928-1.349,4.627s-7.012,3.663-5.433,6.941,4.885,2.3,8.13.771,6.073-9.144,7.808-12.276c1.551-2.8,1.7-11.038-4.949-11.352a5.078,5.078,0,0,0-3.806,1.518l-.332.332s-1.089-4.1-4.773-4.759" transform="translate(-20.447 -24.415)" fill="#af7e69"/><path d="M311.984,331.065s.149.023.441.088a2.672,2.672,0,0,1,.535.164,4.073,4.073,0,0,1,.713.324,7.135,7.135,0,0,1,3.156,4.164l-.125-.034a5.463,5.463,0,0,1,3.408-1.862,6.182,6.182,0,0,1,4.514,1.383,7.432,7.432,0,0,1,2.2,5.077,11.628,11.628,0,0,1-.2,3.1,7.485,7.485,0,0,1-.49,1.564c-.228.521-.508.972-.745,1.486-.986,2.007-1.933,4.18-3.148,6.353a20.842,20.842,0,0,1-2.123,3.184,7.626,7.626,0,0,1-1.458,1.372,11.906,11.906,0,0,1-1.83.895,8.924,8.924,0,0,1-4.087.845,3.477,3.477,0,0,1-2.009-.89,4.268,4.268,0,0,1-.714-.866l-.275-.489c-.067-.181-.124-.371-.184-.557a3.163,3.163,0,0,1,.447-2.235,7.905,7.905,0,0,1,1.46-1.756,19.167,19.167,0,0,1,3.778-2.664l-.1.12c.413-1.423.875-3.014,1.343-4.629l.291.238-3.659,1.932.087-.087-5.668,10.941-2.9,5.764-1.43,2.969a10.176,10.176,0,0,1-1.936,2.8,4.395,4.395,0,0,1-3.179,1.378,4.026,4.026,0,0,1-1.722-.5,4.405,4.405,0,0,1-.754-.5,1.63,1.63,0,0,1-.442-.884,11.567,11.567,0,0,1,.067-3.526c.155-1.158.371-2.31.611-3.46.989-4.6,2.309-9.2,3.767-13.841l.446.173-3.408,7.436.007-.018c-.777,2.092-1.686,4.3-2.674,6.5-.732,1.618-1.5,3.211-2.357,4.756q-.642,1.157-1.358,2.267a8.986,8.986,0,0,1-1.711,2.056,4.23,4.23,0,0,1-2.52.979,4.542,4.542,0,0,1-2.572-.779,3.838,3.838,0,0,1-1.639-2.122,4.021,4.021,0,0,1-.11-1.349,6.484,6.484,0,0,1,.291-1.278l5.4-19.024.419.18q-3.211,5.328-6.428,10.334c-1.082,1.661-2.164,3.294-3.316,4.857a7.1,7.1,0,0,1-2.071,2.1,3.464,3.464,0,0,1-2.922.025,4.177,4.177,0,0,1-2.135-1.945,2.611,2.611,0,0,1-.229-1.471c.133-.519.316-.891.471-1.329q.942-2.569,1.854-5.056c1.225-3.315,2.437-6.51,3.659-9.564s2.445-5.97,3.7-8.723a68.78,68.78,0,0,1,3.99-7.677,12.2,12.2,0,0,1,2.545-3.114,2.8,2.8,0,0,1,.885-.476l.928-.238a9.7,9.7,0,0,1,1.863-.2,6.5,6.5,0,0,1,5.751,3.245l-.186-.041a11.383,11.383,0,0,1,4.036-2.045,4.6,4.6,0,0,1,2.041-.066,5.133,5.133,0,0,1,1.727.747,7.032,7.032,0,0,1,2.174,2.427,10.251,10.251,0,0,1,.986,2.463l-.1-.037a7.2,7.2,0,0,1,3.662-1.459,3.1,3.1,0,0,1,1.262.11s-.1-.02-.308-.044a4.613,4.613,0,0,0-.949,0,7.27,7.27,0,0,0-3.593,1.5l-.074.055-.024-.091a10.216,10.216,0,0,0-1-2.413,6.893,6.893,0,0,0-2.141-2.35,4.973,4.973,0,0,0-1.666-.706,4.416,4.416,0,0,0-1.95.078,11.22,11.22,0,0,0-3.933,2.026l-.114.087-.072-.127A6.248,6.248,0,0,0,290.627,326a9.429,9.429,0,0,0-1.8.2l-.9.236a2.5,2.5,0,0,0-.791.433,11.987,11.987,0,0,0-2.456,3.043,69.1,69.1,0,0,0-3.941,7.654c-1.24,2.75-2.456,5.664-3.664,8.719s-2.415,6.249-3.632,9.564l-1.844,5.061c-.15.422-.355.883-.447,1.257a2.195,2.195,0,0,0,.2,1.219,3.769,3.769,0,0,0,1.918,1.732,3.035,3.035,0,0,0,2.565-.017,6.8,6.8,0,0,0,1.916-1.973c1.137-1.548,2.216-3.18,3.292-4.838,2.145-3.325,4.274-6.779,6.407-10.328l.888-1.478-.47,1.659c-1.737,6.138-3.535,12.494-5.383,19.02a6.212,6.212,0,0,0-.277,1.2,3.544,3.544,0,0,0,.1,1.188,3.37,3.37,0,0,0,1.442,1.844,4.076,4.076,0,0,0,2.293.7,3.749,3.749,0,0,0,2.232-.873,8.524,8.524,0,0,0,1.612-1.947q.7-1.091,1.339-2.236c.843-1.529,1.611-3.112,2.339-4.722.981-2.183,1.89-4.389,2.661-6.463l0-.01,0-.007c1.17-2.552,2.331-5.084,3.409-7.436l.446.174c-1.455,4.624-2.777,9.223-3.763,13.79-.239,1.143-.454,2.285-.608,3.426a11.252,11.252,0,0,0-.078,3.361,1.224,1.224,0,0,0,.293.637,3.931,3.931,0,0,0,.668.443,3.55,3.55,0,0,0,1.524.444,3.941,3.941,0,0,0,2.843-1.247c1.573-1.525,2.259-3.709,3.281-5.635l2.915-5.765,5.69-10.935.031-.057.057-.03,3.663-1.923.426-.224-.135.462c-.473,1.613-.938,3.2-1.355,4.625l-.023.079-.076.042a18.88,18.88,0,0,0-3.7,2.594,7.5,7.5,0,0,0-1.394,1.665,2.793,2.793,0,0,0-.412,1.962,3.382,3.382,0,0,0,2.858,2.526A8.618,8.618,0,0,0,316.7,358a11.752,11.752,0,0,0,1.77-.856,7.317,7.317,0,0,0,1.4-1.305,20.7,20.7,0,0,0,2.1-3.125c1.213-2.15,2.168-4.313,3.167-6.325.236-.5.539-1,.749-1.474a7.214,7.214,0,0,0,.478-1.5,11.34,11.34,0,0,0,.208-3.029,7.207,7.207,0,0,0-2.089-4.929,6,6,0,0,0-4.343-1.364,5.317,5.317,0,0,0-3.324,1.783l-.086.094-.04-.129a6.262,6.262,0,0,0-4.7-4.777" transform="translate(-20.431 -24.404)" fill="#7c5142"/><path d="M305.619,339.937a22.887,22.887,0,0,1-1.764,6.169c-.639,1.654-1.269,3.126-1.735,4.187a7.741,7.741,0,0,1-.838,1.685,40.49,40.49,0,0,1,2.125-6.044c.635-1.646,1.182-3.143,1.554-4.237a9.1,9.1,0,0,1,.658-1.759" transform="translate(-22.737 -25.47)" fill="#7c5142"/><path d="M293.74,337.792c.127.062-1.048,2.652-2.346,5.9a39.215,39.215,0,0,1-2.548,5.828,7.707,7.707,0,0,1,.533-1.791c.381-1.085.913-2.584,1.569-4.217s1.322-3.083,1.844-4.111a6.87,6.87,0,0,1,.948-1.613" transform="translate(-21.799 -25.309)" fill="#7c5142"/></g></g></g></svg>