<svg xmlns="http://www.w3.org/2000/svg" xmlns:xlink="http://www.w3.org/1999/xlink" width="2560" height="1587" viewBox="0 0 2560 1587"><defs><clipPath id="a"><path d="M670.117,1779.34s-98.217-331.888-82.4-340.672,403.537-9.133,403.537-9.133-44.462,349.06-56.807,349.8S702.813,1780.85,670.117,1779.34Z" transform="translate(-585.992 -1429.535)" fill="#1b3d9e"/></clipPath><clipPath id="b"><path d="M895.945,711.361s-4.4,729.651,13.193,731.645,1299.51,9.968,1310.5,0,15.392-737.626,0-737.626S895.945,711.361,895.945,711.361Z" transform="translate(-895.456 -705.38)" fill="#d4dfff"/></clipPath><clipPath id="c"><rect width="357.034" height="412.984" rx="12.079" fill="#1b3d9e"/></clipPath><clipPath id="d"><path d="M2258.03,1365.73s-4.738-339.969,1.579-343.918,54.487-7.9,58.435,1.579,0,342.338,0,342.338Z" transform="translate(-2256.324 -1017.529)" fill="#fc476a"/></clipPath><clipPath id="e"><path d="M2357.1,871.323h132.013a3.735,3.735,0,0,1,3.734,3.734v490.674H2353.37V875.058A3.734,3.734,0,0,1,2357.1,871.323Z" transform="translate(-2353.37 -871.323)" fill="#d4dfff"/></clipPath><clipPath id="f"><path d="M1172.41,613.039l-52.977,6.853c-29.168-13.666-57.412-22.516-83.744-19.765-26.452,2.764-41.648,30.459-35.121,49.107,5.74,16.4,53.334,33.221,73.864,33.616s51.72-4.343,63.169-14.5c.017-.015.028-.033.045-.048h34.763Z" transform="translate(-999.061 -599.626)" fill="#fe8e9c"/></clipPath><clipPath id="g"><path d="M1119.44,619.893s-16.98,1.507-20.264,1.587c-11.893.288-23.811.943-23.811.943s-7.408-24.048-18.3-19.12c-16,7.238,2.288,18.466,2.288,18.466s-28.435-4.739-31.213-4.9,21.285,50.592-4.386,66.008-54.266,7.292-57.84-32.676,37.369-78.312,75.063-77.012S1119.44,619.893,1119.44,619.893Z" transform="translate(-965.692 -573.154)" fill="#1b3d9e"/></clipPath><clipPath id="h"><path d="M1239.14,984.943s-7.914,10.644-10.528,15.91-3.456,31.6-2.907,31.51,6.4-.4,7.61-3.884l6.47-22.232s.445,23.839-.345,25.528-14.516,29.049-13.307,29.918,6.406,4.036,10.457-2.782,13.626-24.472,14.805-27.292-18.757,37.2-17.957,37.523,5.908,2.966,7.932.357,19.867-31.018,20.455-33.3-11.121,27.219-10.51,27.206,2.947,3.019,6.139-1.007,13.916-25.663,14.43-26.8.352-14.918.352-14.918,2.674,16.188,2.049,18.3-5.538,14.368-3.259,14.8c1.733.326,4.741-3,7.109-7.343s5.375-10.851,5.149-17.031-11.607-40.774-11.607-40.774Z" transform="translate(-1225.546 -984.943)" fill="#fe8e9c"/></clipPath><clipPath id="i"><path d="M2074.66,620.017S1735.3,592.172,1664.823,577.38s-129.194,17.363-129.194,17.363v72.139S1717.99,822.256,1799.77,824.3s252.824-43.614,254.187-51.11,0-51.792-6.814-54.517-233.062,23.17-237.151,18.4c-2.656-3.1-40.962-41.557-74.583-70.19h339.249Z" transform="translate(-1535.629 -573.489)" fill="#1b3d9e"/></clipPath><clipPath id="j"><path d="M2082.14,721.893s5.8-9.256,16.645-10.769,14.374,0,14.374,0,29.116,78.9,23.835,80.568-17.232,1.946-20.846-1.39-31.027-41.481-31.027-41.481S2086.89,728.194,2082.14,721.893Z" transform="translate(-2082.14 -710.452)" fill="#1b3d9e"/></clipPath><clipPath id="k"><path d="M2107.44,641.936a18.027,18.027,0,0,1,15.482-10.553c11.536-.634,38.525,13.73,40.934,14.744s34.915,9.76,35.48,10.046c6.953,3.522.763,11.817.763,11.817l-90.526-1.067Z" transform="translate(-2107.44 -631.362)" fill="#1b3d9e"/></clipPath></defs><g transform="translate(-207.844 -197.096)"><path d="M1031.5,1601.276C922.758,1569,818.092,1527.033,727.436,1469.2c-391.6-249.8-305.525-828.439,1.768-1109.6,96.36-88.165,221.206-149.683,352.309-160.588,146.733-12.2,300.343,33.832,410.783,132.445,100.348,89.6,159.29,212.548,289.82,265.645,151.4,61.586,319.3,37.466,477.979,55.71,311.911,35.863,515.746,309.127,446.852,620.948-79.845,361.387-412.063,441.822-734.08,454.412-186.7,7.3-373.4-11.431-557.22-43.174C1292.713,1663.782,1159.3,1639.218,1031.5,1601.276Z" transform="translate(0)" fill="#f6f9ff"/><path d="M668.98,1165.44a59.6,59.6,0,0,1-98.239-35.721c-3.8-24.7,6.714-54.4-10.749-72.28-8.775-8.986-22.724-12.072-30.161-22.193-6.244-8.5-6.381-19.873-6.265-30.418l.619-56.175c-8.331-10.393-25.142-9.766-35.091-18.624-9.841-8.763-11.976-23.065-13.741-36.123A1080.8,1080.8,0,0,0,453.5,779.263c29.2,8.582,58.107,17.886,85.787,30.543,15.448,7.063,31.6,15.683,39.349,30.8,7.8,15.208,5.3,33.34,5.066,50.43-.076,5.52.145,11.225,2.478,16.228,6.013,12.9,22.563,15.864,34.9,22.956A50.764,50.764,0,0,1,645.84,968.3c1.485,14.19-3.128,28.67-.446,42.683,5.945,31.067,43.167,45.408,58.044,73.321C718.992,1113.49,693.831,1143.62,668.98,1165.44Z" transform="translate(0 -0.179)" fill="#d4dfff"/><path d="M745.6,1443.05a1.063,1.063,0,0,1-1.046-.882c-5.856-33.918-26.33-125.614-61.893-229.887-26.1-76.528-56.326-148.861-89.835-214.989-41.878-82.643-89.03-155.77-140.148-217.353a1.063,1.063,0,1,1,1.636-1.357c51.224,61.709,98.468,134.978,140.419,217.771,33.555,66.222,63.819,138.653,89.953,215.281,35.6,104.394,56.1,196.209,61.963,230.173a1.063,1.063,0,0,1-1.049,1.243Z" transform="translate(0 -0.229)" fill="#1c056d"/><path d="M207.844,1077.86c10.036,8.072,14.287,21.1,19.39,32.921s12.878,24.182,25.4,27.214c13.573,3.289,27.828-5.676,41.457-2.631,11.039,2.466,18.863,12.171,24.695,21.862s10.9,20.343,19.912,27.183c13.984,10.617,33.4,9.242,50.794,6.84s36.325-5.057,51.5,3.783c18.459,10.756,25.34,35.247,43.665,46.23,7.8,4.672,17,6.437,26.062,7.11a123.707,123.707,0,0,0,77.132-20.272c-1.3-24.628-9.865-51.245-25.342-70.446s-38.727-32.544-63.354-33.854c-7.857-.418-15.8.347-23.562-.946-32.612-5.43-49.561-43.29-79.783-56.7a58.847,58.847,0,0,0-41.161-2.3c-13.107,4.14-24.81,12.916-38.479,14.368-13.355,1.418-26.255-4.374-39.184-8.008C252.179,1063.25,232.077,1069.13,207.844,1077.86Z" transform="translate(0 -0.225)" fill="#d4dfff"/><path d="M736.46,1434.35a1.064,1.064,0,0,1-1.029-.8c-15.525-60.689-50.268-118.84-100.473-168.164-43.141-42.384-98.544-79.08-164.671-109.069-71.153-32.269-153.233-56.736-258.31-77a1.063,1.063,0,1,1,.4-2.088c105.246,20.291,187.477,44.811,258.786,77.151,66.355,30.093,121.963,66.93,165.282,109.489,50.482,49.6,85.422,108.088,101.043,169.152a1.062,1.062,0,0,1-.767,1.293A1.021,1.021,0,0,1,736.46,1434.35Z" transform="translate(0 -0.26)" fill="#1c056d"/><path d="M778.27,1076.78a54.249,54.249,0,0,1-64.526-52.445c-.181-11.995,3.6-23.671,7.724-34.936,1.411-3.853,2.891-7.879,2.38-11.951-.406-3.231-2.038-6.172-3.814-8.9-6.677-10.264-15.983-19.184-19.5-30.911-6.248-20.817,7.653-43.229,3.3-64.522-1.518-7.42-5.176-14.2-7.785-21.311-9.187-25.038-4.377-54.716,12.249-75.571,23.407,9.391,38.681,34.348,38.913,59.567.116,12.574-3.336,25.89,2.01,37.272,3.2,6.8,9.115,11.853,14.657,16.93,9.708,8.894,19.08,19.082,22.513,31.793,5.394,19.971-4.932,42.006,1.762,61.58,6.642,19.423,28.278,30.977,34.154,50.645a44.551,44.551,0,0,1,1.456,16.335c-.684,8.429-3.458,17.131-9.806,22.719C804.064,1081.78,791.2,1074.29,778.27,1076.78Z" transform="translate(-0.047 -0.164)" fill="#d4dfff"/><path d="M787.07,1439.58a1.063,1.063,0,0,1-1.058-.973c-4.592-53.958-3.332-109.183-2.115-162.589,1.685-73.876,3.426-150.268-10.388-223.9-7.145-38.081-18.567-75.969-29.613-112.609C728.53,888.539,712.64,835.83,708.1,781.951a1.063,1.063,0,0,1,2.118-.179c4.524,53.657,20.381,106.258,35.717,157.126,11.062,36.694,22.5,74.638,29.667,112.83,13.856,73.849,12.111,150.354,10.424,224.339-1.216,53.35-2.475,108.516,2.108,162.36a1.063,1.063,0,0,1-.969,1.148A.7.7,0,0,1,787.07,1439.58Z" transform="translate(-0.048 -0.229)" fill="#1c056d"/><path d="M670.117,1779.34s-98.217-331.888-82.4-340.672,403.537-9.133,403.537-9.133-44.462,349.06-56.807,349.8S702.813,1780.85,670.117,1779.34Z" transform="translate(0 -0.364)" fill="#1b3d9e"/><g transform="translate(585.992 1429.171)" clip-path="url(#a)"><path d="M765.84,1403.86s-113.428,144.909-106.983,148.776,325.08,69.6,324.948,65.736,32.4-188.84,32.4-188.84Z" transform="translate(-585.992 -1429.535)" fill="#1c056d"/></g><rect width="277.43" height="235.767" transform="translate(1420.334 1493.926)" fill="#1b3d9e"/><rect width="495.371" height="50.15" rx="20.853" transform="translate(1314.713 1729.696)" fill="#1c056d"/><path d="M862.117,672.05a3.473,3.473,0,0,1,3.091-1.914c55.951-.377,1341.22-8.93,1398.16.013,22.448,3.526,16.867,858.083,0,890.731-12.4,24.01-1384.11,2.9-1400.05,0C843.678,1557.31,833.948,728.189,862.117,672.05Z" transform="translate(-0.134 -0.364)" fill="#6880e4"/><path d="M895.945,711.361s-4.4,729.651,13.193,731.645,1299.51,9.968,1310.5,0,15.392-737.626,0-737.626S895.945,711.361,895.945,711.361Z" transform="translate(-0.133 -0.219)" fill="#d4dfff"/><g transform="translate(895.323 705.161)" clip-path="url(#b)"><path d="M1737.88,688.827,1239.68,1462.3H871.433l24.512-750.939Z" transform="translate(-895.456 -705.38)" fill="#6880e4" opacity="0.46"/><path d="M1353.42,1468.61l478.83-783.931h210.12L1581.05,1464.51Z" transform="translate(-895.456 -705.38)" fill="#6880e4" opacity="0.46"/><path d="M2131.23,687.589l-463.59,781.7,287.17-3.64,308.4-567.618L2257,692.521Z" transform="translate(-895.456 -705.38)" fill="#6880e4" opacity="0.46"/></g><circle cx="33.717" cy="33.717" r="33.717" transform="translate(1514.999 1497.833) rotate(-22.5)" fill="#1b3d9e"/><path d="M1241.17,1026.61q2.481-11.573,9.718-17.575a25.424,25.424,0,0,1,15.921-6.2A27.66,27.66,0,0,1,1283.35,1008q7.851,5.379,11.165,16.542.408,26.886.414,53.139t.826,52.726q18.192,0,35.358-.414t32.876-.413q11.165,3.315,16.541,10.545a23.917,23.917,0,0,1,5.17,15.094,22.075,22.075,0,0,1-6.2,14.474q-6,6.619-17.576,9.1-16.128,0-32.255.207t-32.255-.207q.823,20.683,1.034,44.869t.62,44.869q-.833,13.647-8.891,20.263a27.649,27.649,0,0,1-17.989,6.617q-9.924,0-18.816-6.823t-10.546-20.057q-.417-21.09.621-44.455t.207-44.455q-17.784-.407-38.252-1.861a247.451,247.451,0,0,1-39.7-6,155.386,155.386,0,0,1-35.358-12.819,72.446,72.446,0,0,1-26.052-21.918,55.056,55.056,0,0,1-10.339-27.707,90.144,90.144,0,0,1,2.894-30.6,157.59,157.59,0,0,1,12.407-31.842,341.886,341.886,0,0,1,17.988-31.015q9.712-14.887,19.437-27.914t17.162-22.951q16.534-22.331,33.91-43.421t34.737-42.594q9.091-7.444,18.816-7.651a27.276,27.276,0,0,1,16.749,4.756,25.43,25.43,0,0,1,9.718,14.06q2.684,9.1-1.447,20.263-14.065,17.368-33.083,39.492t-37.426,46.316a553.263,553.263,0,0,0-33.5,49.211q-15.1,25.026-21.3,48.59-2.483,8.277,1.86,14.267t12.82,9.925a96.244,96.244,0,0,0,19.643,6.41,211.663,211.663,0,0,0,22.124,3.722q10.952,1.241,20.263,1.861t14.267,1.034q-.833-26.053-.827-52.312Z" transform="translate(-0.093 -0.211)" fill="#fff"/><path d="M1441.73,1217.25q-5.378-17.776-10.751-44.455a518.747,518.747,0,0,1-8.064-57.688,568.047,568.047,0,0,1-1.861-63.685,336.162,336.162,0,0,1,7.236-62.444,202.114,202.114,0,0,1,19.643-54.173q13.231-24.4,35.151-38.459a194.924,194.924,0,0,1,56.241-24.812,182.871,182.871,0,0,1,56.654-5.79,166,166,0,0,1,52.726,11.786,143.316,143.316,0,0,1,43.834,27.5,132.183,132.183,0,0,1,30.188,41.767q11.368,24.405,12.2,54.587.408,28.534,2.068,61t.207,65.132a348.189,348.189,0,0,1-8.477,63.064,166.482,166.482,0,0,1-23.158,54.793,103.293,103.293,0,0,1-36.6,33.5,165.571,165.571,0,0,1-49.624,17.989,196.145,196.145,0,0,1-54.794,2.688,178.733,178.733,0,0,1-52.726-12.613,144.425,144.425,0,0,1-43.421-27.5A95.634,95.634,0,0,1,1441.73,1217.25ZM1510.791,943.9q-10.759,8.277-19.23,24.192a83.3,83.3,0,0,0-9.718,33.7q-1.658,24.812-3.309,50.245t-1.241,50.244a355.937,355.937,0,0,0,4.136,48.8,176.19,176.19,0,0,0,13.647,45.9,62.924,62.924,0,0,0,18.4,24.4,91.4,91.4,0,0,0,27.293,15.3,106.445,106.445,0,0,0,32.049,6,120.341,120.341,0,0,0,33.083-3.308,106.628,106.628,0,0,0,30.4-12.613,83.045,83.045,0,0,0,24.191-22.331q7.027-8.684,11.373-24.192a214.779,214.779,0,0,0,6.41-34.53q2.064-19.016,2.481-39.286t0-38.459q-.417-18.193-.828-32.463t-.413-20.884a94.367,94.367,0,0,0-88.7-96.767,110,110,0,0,0-39.286,4.962q-20.464,6.206-40.734,21.094Z" transform="translate(-0.128 -0.211)" fill="#fff"/><path d="M1930.12,1026.61q2.481-11.573,9.718-17.575a25.425,25.425,0,0,1,15.921-6.2A27.662,27.662,0,0,1,1972.3,1008q7.851,5.379,11.165,16.541.408,26.886.414,53.139t.826,52.726q18.192,0,35.358-.414t32.876-.413q11.165,3.315,16.541,10.545a23.918,23.918,0,0,1,5.17,15.094,22.075,22.075,0,0,1-6.2,14.474q-6,6.619-17.576,9.1-16.128,0-32.255.207t-32.255-.207q.823,20.683,1.034,44.869t.62,44.869q-.833,13.647-8.891,20.263a27.649,27.649,0,0,1-17.989,6.617q-9.924,0-18.815-6.823t-10.546-20.057q-.417-21.09.621-44.455t.207-44.455q-17.784-.407-38.252-1.861a247.462,247.462,0,0,1-39.7-6,155.386,155.386,0,0,1-35.358-12.819,72.448,72.448,0,0,1-26.052-21.918,55.057,55.057,0,0,1-10.339-27.707,90.137,90.137,0,0,1,2.895-30.6,157.6,157.6,0,0,1,12.407-31.842,341.908,341.908,0,0,1,17.988-31.015q9.712-14.887,19.436-27.914t17.162-22.951q16.534-22.331,33.91-43.421t34.737-42.594q9.091-7.444,18.816-7.651A27.276,27.276,0,0,1,1957,876.083a25.431,25.431,0,0,1,9.718,14.06q2.683,9.1-1.447,20.263-14.065,17.368-33.083,39.492t-37.426,46.316a553.214,553.214,0,0,0-33.5,49.21q-15.1,25.026-21.3,48.591-2.482,8.277,1.86,14.267t12.82,9.925a96.234,96.234,0,0,0,19.643,6.41,211.657,211.657,0,0,0,22.124,3.722q10.952,1.241,20.263,1.861t14.267,1.034q-.833-26.053-.828-52.312Z" transform="translate(-0.165 -0.211)" fill="#fff"/><path d="M1160.5,1566.56,1027.91,1193.8l33.668,5.41a5.311,5.311,0,0,1,4.147,3.426l132.691,364.275a.123.123,0,0,1-.118.166Z" transform="translate(-0.081 -0.364)" fill="#1b3d9e" opacity="0.54"/><path d="M734.249,1582.39c5.6-.992,280.683-391.447,293.663-388.591s164.139,461.73,158.523,460.838S720.339,1584.85,734.249,1582.39Z" transform="translate(-0.059 -0.364)" fill="#fc476a"/><path d="M985.145,1519.24a15.709,15.709,0,0,1-6.506,3.72,11.588,11.588,0,0,1-6.33-.055,12.71,12.71,0,0,1-5.48-3.405,15.974,15.974,0,0,1-3.719-6.507q2.007-24.606,3.082-50t2.737-50.479q1.657-25.087,4.786-49.413a346.726,346.726,0,0,1,9.23-46.806q.5-1.822,3.371-3.267a23.063,23.063,0,0,1,6.981-2.06,50.984,50.984,0,0,1,8.95-.481,47.516,47.516,0,0,1,9.321,1.164,28.3,28.3,0,0,1,7.964,3.06,12.563,12.563,0,0,1,5.082,5.244q2.6,3.582,3.113,12.325a164.162,164.162,0,0,1-.388,21.064q-.9,12.324-3.29,27.364t-5.648,30.9q-3.262,15.856-7.166,31.818t-8.277,30.163q-4.369,14.2-8.755,25.861a133.736,133.736,0,0,1-8.484,18.828A3.643,3.643,0,0,1,985.145,1519.24Zm-28.476,62.235a29.068,29.068,0,0,1-7.282-8.023,21.376,21.376,0,0,1-3.175-9.271,16.1,16.1,0,0,1,1.988-9.191,20.762,20.762,0,0,1,8-7.813q7.716-4.691,15.459-3.565t11.924,9.393a30.475,30.475,0,0,1,3.771,15.492q-.163,8.318-7.249,14.376a14.152,14.152,0,0,1-11.7,3.845,22.147,22.147,0,0,1-11.737-5.249Z" transform="translate(-0.071 -0.364)" fill="#fff"/><rect width="357.034" height="412.984" rx="12.079" transform="translate(2163.413 1365.366)" fill="#1b3d9e"/><g transform="translate(2163.413 1365.366)" clip-path="url(#c)"><path d="M2530.74,1424.21s-139.84,196.9-392.923,251.4v120.522h401.74S2550.04,1431.26,2530.74,1424.21Z" transform="translate(-2163.65 -1365.73)" fill="#1c056d"/></g><path d="M2258.03,1365.73s-4.738-339.969,1.579-343.918,54.487-7.9,58.435,1.579,0,342.338,0,342.338Z" transform="translate(-0.237 -0.241)" fill="#9dc43a"/><g transform="translate(2256.087 1017.288)" clip-path="url(#d)"><path d="M2299.33,1070.31v302.13h-22.55V1070.92Z" transform="translate(-2256.324 -1017.529)" fill="#7d9c2e"/><path d="M2246.96,1083.37s70.087-5.317,79.857-.432c0,0-.489-69.856-4.4-71.322s-70.833-1.843-72.3,5.918S2246.96,1083.37,2246.96,1083.37Z" transform="translate(-2256.324 -1017.529)" fill="#d4dfff"/></g><path d="M2357.1,871.323h132.013a3.735,3.735,0,0,1,3.734,3.734v490.674H2353.37V875.058A3.734,3.734,0,0,1,2357.1,871.323Z" transform="translate(-0.237 -0.225)" fill="#d4dfff"/><g transform="translate(2353.133 871.098)" clip-path="url(#e)"><rect width="47.848" height="530.476" transform="translate(-11.2 -18.072)" fill="#6880e4" opacity="0.46"/><rect width="17.575" height="6.122" transform="translate(0 37.93)" fill="#6880e4"/><rect width="17.575" height="6.122" transform="translate(0 66.113)" fill="#6880e4"/><rect width="17.575" height="6.122" transform="translate(0 94.297)" fill="#6880e4"/><rect width="17.575" height="6.122" transform="translate(0 122.481)" fill="#6880e4"/><rect width="17.575" height="6.122" transform="translate(0 150.667)" fill="#6880e4"/><rect width="17.575" height="6.122" transform="translate(0 178.847)" fill="#6880e4"/><rect width="17.575" height="6.122" transform="translate(0 207.037)" fill="#6880e4"/><rect width="17.575" height="6.122" transform="translate(0 235.217)" fill="#6880e4"/><rect width="17.575" height="6.122" transform="translate(0 263.397)" fill="#6880e4"/><rect width="17.575" height="6.122" transform="translate(0 291.587)" fill="#6880e4"/><rect width="17.575" height="6.122" transform="translate(0 319.767)" fill="#6880e4"/><rect width="17.575" height="6.122" transform="translate(0 347.947)" fill="#6880e4"/><rect width="17.575" height="6.122" transform="translate(0 376.137)" fill="#6880e4"/><rect width="17.575" height="6.122" transform="translate(0 404.317)" fill="#6880e4"/><rect width="17.575" height="6.122" transform="translate(0 432.507)" fill="#6880e4"/><rect width="17.575" height="6.122" transform="translate(0 460.687)" fill="#6880e4"/><path d="M2462.68,852.669c-38.7,33.157-52.279,92.459-31.851,139.151,9.722,22.221,26.339,42.04,29.456,66.094,3.024,23.334-7.239,46.032-15.355,68.117-8,21.764-14.156,44.757-12.531,67.888,2.658,37.828,25.86,73.216,22.07,110.947-3.64,36.24-31.827,67.792-30.2,104.178.465,0-.488,1.6-.024,1.6h90.62l-.043-560.3,11.148.111Z" transform="translate(-2353.37 -871.323)" fill="#6880e4" opacity="0.17"/></g><path d="M2763.594,1784.46H474.319a4.251,4.251,0,0,1,0-8.5H2763.594a4.251,4.251,0,0,1,0,8.5Z" transform="translate(0 -0.364)" fill="#1c056d"/><path d="M1172.41,613.039l-52.977,6.853c-29.168-13.666-57.412-22.516-83.744-19.765-26.452,2.764-41.648,30.459-35.121,49.107,5.74,16.4,53.334,33.221,73.864,33.616s51.72-4.343,63.169-14.5c.017-.015.028-.033.045-.048h34.763Z" transform="translate(-0.079 -0.097)" fill="#fe8e9c"/><g transform="translate(998.982 599.529)" clip-path="url(#f)"><path d="M1056,685.373s10.194-19.925,9.731-35.216-21.48-39.119-21.48-39.119l-17.443.891s5.688,55.836.643,65.683h0Z" transform="translate(-999.061 -599.626)" fill="#e57492"/></g><path d="M1137.61,668.35s10.494-16.108-13.895-32.368c0,0,21.752,3.516,29.223,18.017s5.932,14.721,5.932,14.721Z" transform="translate(-0.086 -0.103)" fill="#e57492"/><path d="M1119.44,619.893s-16.98,1.507-20.264,1.587c-11.893.288-23.811.943-23.811.943s-7.408-24.048-18.3-19.12c-16,7.238,2.288,18.466,2.288,18.466s-28.435-4.739-31.213-4.9,21.285,50.592-4.386,66.008-54.266,7.292-57.84-32.676,37.369-78.312,75.063-77.012S1119.44,619.893,1119.44,619.893Z" transform="translate(-0.075 -0.093)" fill="#1b3d9e"/><g transform="translate(965.617 573.06)" clip-path="url(#g)"><path d="M1001.92,690.177s19.542-16.37,18.577-34.464-6.8-46.421-3.932-48.3,32.966,10.134,32.966,10.134-5.542-8.125,4.114-12.285h0s15.3,16.747,14.217,18.5-36.229-1.757-36.229-1.757,13.789,33.864,3.92,53.871-33.633,14.3-33.633,14.3" transform="translate(-965.692 -573.154)" fill="#1c056d"/></g><path d="M1118.32,668.721s-8.09-2.325-8.09-16.369v-1.4S1118.45,665.894,1118.32,668.721Z" transform="translate(-0.084 -0.105)" fill="#f6f9ff"/><path d="M1052.55,651.59s32.265,17.548,35.293,15.685-2.446-21.547-2.446-21.547,3.494-.233,4.309,2.912,5.358,21.663,0,22.013S1057.79,657.918,1052.55,651.59Z" transform="translate(-0.079 -0.105)" fill="#e57492"/><path d="M1239.14,984.943s-7.914,10.644-10.528,15.91-3.456,31.6-2.907,31.51,6.4-.4,7.61-3.884l6.47-22.232s.445,23.839-.345,25.528-14.516,29.049-13.307,29.918,6.406,4.036,10.457-2.782,13.626-24.472,14.805-27.292-18.757,37.2-17.957,37.523,5.908,2.966,7.932.357,19.867-31.018,20.455-33.3-11.121,27.219-10.51,27.206,2.947,3.019,6.139-1.007,13.916-25.663,14.43-26.8.352-14.918.352-14.918,2.674,16.188,2.049,18.3-5.538,14.368-3.259,14.8c1.733.326,4.741-3,7.109-7.343s5.375-10.851,5.149-17.031-11.607-40.774-11.607-40.774Z" transform="translate(-0.096 -0.191)" fill="#fe8e9c"/><g transform="translate(1225.449 984.752)" clip-path="url(#h)"><path d="M1222.65,1010.09c.5,1.8,24.75-11.654,57.791-6.488,0,0-4.445-20.065-8.05-21.867s-31.959-1.8-36.285.24S1220.37,1001.8,1222.65,1010.09Z" transform="translate(-1225.546 -984.943)" fill="#e57492"/></g><path d="M1535.62,590.093a4.383,4.383,0,0,0-3.607-4.314L1360.12,554.866c-144.195-12.333-187.709,51.493-187.709,51.493v61.969l16.868-.067c12.489,36.472,48.024,140.992,51.641,159.98,4.4,23.081-23.969,162.063-21.03,163.905s66.618,9.679,72.5,8.7,35.268-154.038,33.309-172.538c-1.5-14.2-5.9-111.595-16.718-160.523l226.642-.9Z" transform="translate(-0.104 -0.114)" fill="#9dc43a"/><path d="M1308.98,667.784s-4.294-22.728-23.357-38.5c0,0,101.892,20.378,131.474,22.351s118.526-5.852,118.526-5.852v21.1Z" transform="translate(-0.111 -0.102)" fill="#7d9c2e"/><path d="M2046.74,728.963s35.826-8.509,36.722-6.867,5.971,18.062,4.031,24.033-37.17,18.809-37.17,18.809Z" transform="translate(-0.173 -0.124)" fill="#e57492"/><path d="M2074.66,620.017S1735.3,592.172,1664.823,577.38s-129.194,17.363-129.194,17.363v72.139S1717.99,822.256,1799.77,824.3s252.824-43.614,254.187-51.11,0-51.792-6.814-54.517-233.062,23.17-237.151,18.4c-2.656-3.1-40.962-41.557-74.583-70.19h339.249Z" transform="translate(-0.156 -0.103)" fill="#1b3d9e"/><g transform="translate(1535.473 573.387)" clip-path="url(#i)"><path d="M1816.44,783.356a27.219,27.219,0,0,1-2.923-.126q-.278-.031-.581-.084a1.594,1.594,0,1,1,.549-3.141c.134.023.263.042.385.056a36.03,36.03,0,0,0,4.6.072,1.594,1.594,0,0,1,.1,3.187Q1817.41,783.356,1816.44,783.356Zm7.405-.323a1.594,1.594,0,0,1-.109-3.185c1.617-.114,3.385-.256,5.289-.426a1.594,1.594,0,0,1,.283,3.176c-1.926.172-3.713.316-5.35.431-.038,0-.078,0-.119,0Zm10.629-.935a1.594,1.594,0,0,1-.158-3.18q2.529-.256,5.288-.557a1.594,1.594,0,1,1,.346,3.17q-2.771.3-5.313.559a1.465,1.465,0,0,1-.166.009Zm-26.312-.6a1.593,1.593,0,0,1-.621-.127c-1.439-.61-3.1-1.384-4.929-2.3a1.594,1.594,0,0,1,1.428-2.851c1.771.888,3.368,1.634,4.745,2.217a1.594,1.594,0,0,1-.623,3.063Zm36.908-.55a1.594,1.594,0,0,1-.181-3.178q2.565-.3,5.283-.622a1.594,1.594,0,1,1,.379,3.166q-2.721.326-5.3.623a1.565,1.565,0,0,1-.185.011Zm10.577-1.268a1.594,1.594,0,0,1-.194-3.176q2.587-.321,5.278-.663a1.594,1.594,0,1,1,.4,3.163q-2.7.343-5.288.664a1.576,1.576,0,0,1-.205.013Zm10.563-1.342a1.594,1.594,0,0,1-.2-3.175q2.6-.338,5.275-.692a1.594,1.594,0,1,1,.418,3.161q-2.679.354-5.283.693a1.644,1.644,0,0,1-.206.013Zm10.557-1.4a1.594,1.594,0,0,1-.211-3.174l5.272-.714a1.594,1.594,0,0,1,.43,3.159l-5.276.715a1.62,1.62,0,0,1-.221.014Zm-78.168-.177a1.6,1.6,0,0,1-.76-.193q-2.225-1.208-4.686-2.61a1.594,1.594,0,0,1,1.578-2.771q2.429,1.382,4.63,2.578a1.595,1.595,0,0,1-.762,3Zm88.716-1.261a1.594,1.594,0,0,1-.216-3.173l5.27-.731a1.594,1.594,0,1,1,.441,3.158l-5.275.731a1.591,1.591,0,0,1-.224.016Zm10.542-1.471a1.594,1.594,0,0,1-.221-3.173l5.266-.746a1.594,1.594,0,0,1,.449,3.156l-5.271.747a1.6,1.6,0,0,1-.231.016Zm10.537-1.5a1.594,1.594,0,0,1-.224-3.172l5.265-.758a1.594,1.594,0,1,1,.457,3.155l-5.271.759a1.61,1.61,0,0,1-.231.016ZM1789.327,771.5a1.582,1.582,0,0,1-.807-.221q-2.224-1.309-4.59-2.738a1.594,1.594,0,1,1,1.646-2.729q2.35,1.417,4.561,2.72a1.594,1.594,0,0,1-.811,2.968Zm129.6-.488a1.594,1.594,0,0,1-.227-3.172l5.265-.768a1.594,1.594,0,1,1,.463,3.155l-5.269.769a1.618,1.618,0,0,1-.237.017Zm10.53-1.543a1.594,1.594,0,0,1-.229-3.171l5.264-.777a1.594,1.594,0,0,1,.467,3.154l-5.267.777a1.579,1.579,0,0,1-.24.017ZM1940,767.905a1.594,1.594,0,0,1-.232-3.171l5.268-.787a1.594,1.594,0,0,1,.473,3.153l-5.271.787a1.546,1.546,0,0,1-.241.018Zm10.524-1.575a1.594,1.594,0,0,1-.234-3.171l5.261-.793a1.594,1.594,0,1,1,.477,3.152l-5.265.793a1.639,1.639,0,0,1-.247.018ZM1780.2,766a1.589,1.589,0,0,1-.834-.236q-2.218-1.366-4.535-2.813a1.594,1.594,0,0,1,1.689-2.7q2.306,1.441,4.517,2.8A1.595,1.595,0,0,1,1780.2,766Zm180.852-1.255a1.594,1.594,0,0,1-.237-3.17l5.26-.8a1.594,1.594,0,0,1,.48,3.152l-5.262.8a1.62,1.62,0,0,1-.245.019Zm10.521-1.6a1.594,1.594,0,0,1-.239-3.17l5.259-.806a1.594,1.594,0,0,1,.484,3.151l-5.261.806a1.645,1.645,0,0,1-.249.019Zm10.521-1.615a1.594,1.594,0,0,1-.24-3.17l5.259-.811a1.594,1.594,0,1,1,.486,3.151l-5.261.811a1.591,1.591,0,0,1-.251.019Zm-210.927-1.168a1.585,1.585,0,0,1-.85-.247q-2.214-1.4-4.5-2.864a1.594,1.594,0,1,1,1.719-2.685q2.276,1.457,4.484,2.854a1.594,1.594,0,0,1-.855,2.941Zm221.447-.458a1.594,1.594,0,0,1-.242-3.17l5.259-.817a1.594,1.594,0,0,1,.49,3.15l-5.261.817a1.566,1.566,0,0,1-.253.019Zm10.519-1.637a1.594,1.594,0,0,1-.243-3.169l5.26-.822a1.594,1.594,0,0,1,.492,3.15l-5.262.822a1.557,1.557,0,0,1-.252.019Zm10.521-1.646a1.594,1.594,0,0,1-.245-3.169l5.259-.827a1.594,1.594,0,0,1,.5,3.149l-5.261.828a1.66,1.66,0,0,1-.256.02Zm10.521-1.657a1.594,1.594,0,0,1-.247-3.169l5.262-.832a1.594,1.594,0,1,1,.5,3.149l-5.262.833a1.617,1.617,0,0,1-.258.02Zm-261.977-.342a1.588,1.588,0,0,1-.863-.255q-2.209-1.427-4.47-2.9a1.594,1.594,0,1,1,1.74-2.671q2.256,1.469,4.46,2.894a1.594,1.594,0,0,1-.867,2.933Zm272.5-1.326a1.594,1.594,0,0,1-.248-3.169l5.264-.837a1.594,1.594,0,0,1,.5,3.148l-5.266.838a1.627,1.627,0,0,1-.253.02Zm10.532-1.678a1.594,1.594,0,0,1-.25-3.169l5.271-.844a1.594,1.594,0,1,1,.5,3.148l-5.271.844a1.586,1.586,0,0,1-.257.021Zm10.553-1.694a1.594,1.594,0,0,1-.252-3.168l5.316-.859a1.594,1.594,0,0,1,.512,3.148l-5.32.859a1.59,1.59,0,0,1-.262.021ZM1753.28,748.8a1.588,1.588,0,0,1-.873-.261q-2.2-1.447-4.449-2.93a1.594,1.594,0,1,1,1.758-2.66q2.24,1.479,4.441,2.924a1.594,1.594,0,0,1-.877,2.927Zm-8.882-5.867a1.579,1.579,0,0,1-.88-.266q-2.2-1.463-4.432-2.953a1.594,1.594,0,1,1,1.771-2.651q2.227,1.487,4.425,2.949a1.594,1.594,0,0,1-.884,2.922Zm-8.853-5.911a1.587,1.587,0,0,1-.887-.271l-4.418-2.972a1.594,1.594,0,1,1,1.781-2.644l4.414,2.968a1.594,1.594,0,0,1-.891,2.918Zm-8.823-5.949a1.585,1.585,0,0,1-.892-.274l-4.407-2.988a1.594,1.594,0,1,1,1.792-2.638l4.4,2.985a1.594,1.594,0,0,1-.895,2.914Zm-8.8-5.98a1.587,1.587,0,0,1-.9-.277l-4.388-3a1.594,1.594,0,0,1,1.8-2.633l4.384,2.993a1.594,1.594,0,0,1-.9,2.912Zm-8.776-6a1.585,1.585,0,0,1-.9-.279l-4.4-3.023a1.594,1.594,0,0,1,1.809-2.627l4.395,3.019a1.594,1.594,0,0,1-.9,2.909Zm-8.779-6.041a1.588,1.588,0,0,1-.9-.282l-4.38-3.025a1.594,1.594,0,0,1,1.813-2.623l4.378,3.023a1.594,1.594,0,0,1-.906,2.907ZM1691.608,707a1.586,1.586,0,0,1-.907-.284l-4.373-3.034a1.594,1.594,0,0,1,1.818-2.618l4.371,3.032a1.594,1.594,0,0,1-.909,2.9Zm-8.741-6.072a1.593,1.593,0,0,1-.91-.286l-4.368-3.043a1.594,1.594,0,1,1,1.824-2.615l4.366,3.041a1.595,1.595,0,0,1-.912,2.9Zm-8.729-6.088a1.588,1.588,0,0,1-.912-.288l-4.333-3.03a1.609,1.609,0,0,1-.407-2.23,1.579,1.579,0,0,1,2.206-.4l4.36,3.049a1.594,1.594,0,0,1-.914,2.9Zm-8.721-6.1a1.586,1.586,0,0,1-.914-.289l-4.358-3.058a1.594,1.594,0,1,1,1.832-2.609l4.357,3.056a1.594,1.594,0,0,1-.916,2.9Zm-8.711-6.117a1.59,1.59,0,0,1-.916-.29l-4.354-3.064a1.594,1.594,0,1,1,1.836-2.607l4.351,3.062a1.594,1.594,0,0,1-.918,2.9ZM1648,676.493a1.587,1.587,0,0,1-.918-.292l-4.351-3.068a1.594,1.594,0,0,1,1.838-2.605l4.351,3.068a1.594,1.594,0,0,1-.92,2.9Zm-8.7-6.14a1.588,1.588,0,0,1-.919-.292l-4.35-3.075a1.594,1.594,0,1,1,1.842-2.6l4.348,3.073a1.594,1.594,0,0,1-.921,2.9Zm-8.7-6.149a1.59,1.59,0,0,1-.92-.292l-4.349-3.078a1.594,1.594,0,0,1,1.842-2.6l4.349,3.077a1.594,1.594,0,0,1-.922,2.9Zm-8.7-6.156a1.585,1.585,0,0,1-.92-.293l-4.351-3.079a1.594,1.594,0,1,1,1.842-2.6l4.351,3.079a1.594,1.594,0,0,1-.922,2.9Zm-8.706-6.158a1.585,1.585,0,0,1-.919-.292l-4.359-3.076a1.594,1.594,0,1,1,1.836-2.606l4.363,3.079a1.594,1.594,0,0,1-.921,2.9Zm-8.738-6.149a1.592,1.592,0,0,1-.912-.287c-2-1.395-3.481-2.418-4.387-3.019a1.594,1.594,0,1,1,1.762-2.657c.919.609,2.426,1.647,4.451,3.062a1.595,1.595,0,0,1-.914,2.9Z" transform="translate(-1535.629 -573.489)" fill="#1c056d"/><path d="M1547.61,585.273s2.988,95.226,1.494,96.72-18.3-10.83-18.3-10.83-1.958-75.94-.373-80.662S1547.61,585.273,1547.61,585.273Z" transform="translate(-1535.629 -573.489)" fill="#1c056d"/><path d="M1735.41,666.882s-72.953-60.066-84.191-62.979c0,0,73.673,16.649,130.7,32.883s298.44,12.9,298.44,12.9V673.83l-344.946-6.948" transform="translate(-1535.629 -573.489)" fill="#1c056d"/></g><path d="M2082.14,721.893s5.8-9.256,16.645-10.769,14.374,0,14.374,0,29.116,78.9,23.835,80.568-17.232,1.946-20.846-1.39-31.027-41.481-31.027-41.481S2086.89,728.194,2082.14,721.893Z" transform="translate(-0.177 -0.124)" fill="#1b3d9e"/><g transform="translate(2081.962 710.328)" clip-path="url(#j)"><path d="M2090.32,759.323s7.74-8.818,11.463-8.622a4.02,4.02,0,0,1,3.717,2.9,2.186,2.186,0,0,1-.435,2.162c-2.168,2.481-8.472,9.524-9.846,9.175C2093.56,764.516,2090.32,759.323,2090.32,759.323Z" transform="translate(-2082.14 -710.452)" fill="#1c056d"/><path d="M2098.11,770.754s7.74-8.818,11.463-8.622a4.02,4.02,0,0,1,3.717,2.9,2.186,2.186,0,0,1-.435,2.162c-2.169,2.481-8.473,9.524-9.846,9.175C2101.34,775.947,2098.11,770.754,2098.11,770.754Z" transform="translate(-2082.14 -710.452)" fill="#1c056d"/><path d="M2105.27,709.178s27.318,81.764,27.128,85.179c0,0,9.106-.569,9.106-2.846s-22.385-81.954-25.231-82.333a102.439,102.439,0,0,0-11,0Z" transform="translate(-2082.14 -710.452)" fill="#1c056d"/></g><path d="M2074.66,636.268s33.537,4.664,34.166,6.341.75,24.315.75,24.315l-34.916.062Z" transform="translate(-0.175 -0.103)" fill="#e57492"/><path d="M2107.44,641.936a18.027,18.027,0,0,1,15.482-10.553c11.536-.634,38.525,13.73,40.934,14.744s34.915,9.76,35.48,10.046c6.953,3.522.763,11.817.763,11.817l-90.526-1.067Z" transform="translate(-0.183 -0.102)" fill="#1b3d9e"/><g transform="translate(2107.257 631.26)" clip-path="url(#k)"><path d="M2116.68,631.363c1.1,1.017,40.022,19.519,45.8,20.265s41.392,10.333,41.392,10.333,1.924-4.87-1.245-6.7-37.56-10.044-40.3-11.565-35.914-14.913-38.653-14.457a46.038,46.038,0,0,0-7,2.12Z" transform="translate(-2107.44 -631.362)" fill="#1c056d"/><path d="M2126.51,668.759c.713-2.566,3.255-14.969,5.192-15.4s6.641.855,6.5,1.568-1.14,14.256-4.277,14.256S2126.51,668.759,2126.51,668.759Z" transform="translate(-2107.44 -631.362)" fill="#1c056d"/><path d="M2144.95,672.324c.713-2.566,3.255-14.969,5.192-15.4s6.641.855,6.5,1.568-1.14,14.256-4.277,14.256S2144.95,672.324,2144.95,672.324Z" transform="translate(-2107.44 -631.362)" fill="#1c056d"/></g></g></svg>