<svg xmlns="http://www.w3.org/2000/svg" xmlns:xlink="http://www.w3.org/1999/xlink" width="32" height="32" viewBox="0 0 32 32"><defs><clipPath id="a"><rect width="32" height="32" transform="translate(-514 801)" fill="#fff" stroke="#707070" stroke-width="1"/></clipPath></defs><g transform="translate(514 -801)" clip-path="url(#a)"><g transform="translate(-2282.5 -4412)"><path d="M1626.5,775h-14a7.008,7.008,0,0,1-7-7V756a7.009,7.009,0,0,1,7-7h14a7.008,7.008,0,0,1,7,7v12a7.008,7.008,0,0,1-7,7Zm-14-24a5.006,5.006,0,0,0-5,5v12a5.006,5.006,0,0,0,5,5h14a5.006,5.006,0,0,0,5-5V756a5.006,5.006,0,0,0-5-5Z" transform="translate(165 4467)" fill="#9dc43a"/><path d="M1615.75,762a3.5,3.5,0,1,1,3.5-3.5,3.5,3.5,0,0,1-3.5,3.5Zm0-5a1.5,1.5,0,1,0,1.5,1.5,1.5,1.5,0,0,0-1.5-1.5Z" transform="translate(165 4467)" fill="#9dc43a"/><path d="M1620.75,769a1,1,0,0,1-1-1,3,3,0,0,0-3-3h-2a3,3,0,0,0-3,3,1,1,0,0,1-2,0,5.006,5.006,0,0,1,5-5h2a5.006,5.006,0,0,1,5,5,1,1,0,0,1-1,1Z" transform="translate(165 4467)" fill="#9dc43a"/><path d="M1628.5,757h-7a1,1,0,0,1,0-2h7a1,1,0,0,1,0,2Z" transform="translate(165 4467)" fill="#9dc43a"/><path d="M1628.5,763h-5a1,1,0,0,1,0-2h5a1,1,0,0,1,0,2Z" transform="translate(165 4467)" fill="#9dc43a"/><path d="M1628.5,769h-3a1,1,0,0,1,0-2h3a1,1,0,0,1,0,2Z" transform="translate(165 4467)" fill="#9dc43a"/></g></g></svg>