<svg xmlns="http://www.w3.org/2000/svg" width="32" height="32" viewBox="0 0 32 32"><g transform="translate(-172 -188)"><path d="M13.333-1A14.333,14.333,0,1,1-1,13.333,14.35,14.35,0,0,1,13.333-1Zm0,26.667A12.333,12.333,0,1,0,1,13.333,12.347,12.347,0,0,0,13.333,25.667Z" transform="translate(174.667 190.667)" fill="#9dc43a"/><path d="M5.439,11.227a1,1,0,0,1-.512-.141L.794,8.619A3.945,3.945,0,0,1-1,5.467V0A1,1,0,0,1,0-1,1,1,0,0,1,1,0V5.467A1.968,1.968,0,0,0,1.816,6.9L5.952,9.368a1,1,0,0,1-.513,1.859Z" transform="translate(187.507 198.013)" fill="#9dc43a"/><path d="M0,0H32V32H0Z" transform="translate(172 188)" fill="none" opacity="0"/></g></svg>