<svg xmlns="http://www.w3.org/2000/svg" width="32" height="32" viewBox="0 0 32 32"><path d="M4.16,9.32A5.16,5.16,0,1,1,9.32,4.16,5.166,5.166,0,0,1,4.16,9.32ZM4.16,1A3.16,3.16,0,1,0,7.32,4.16,3.164,3.164,0,0,0,4.16,1Z" transform="translate(11.84 9.587)" fill="#9dc43a"/><path d="M11.493-1a13,13,0,0,1,7.531,2.354,11.753,11.753,0,0,1,4.621,7.091,14.747,14.747,0,0,1-1.3,9.894,25.4,25.4,0,0,1-5.353,7.1,7.925,7.925,0,0,1-11,0A25.449,25.449,0,0,1,.649,18.333a14.777,14.777,0,0,1-1.3-9.9A11.753,11.753,0,0,1,3.97,1.35,12.992,12.992,0,0,1,11.493-1Zm0,26.66A5.886,5.886,0,0,0,15.6,24c3.566-3.424,7.516-8.825,6.092-15.113C20.377,3.066,15.376,1,11.493,1S2.621,3.062,1.3,8.875C-.124,15.162,3.819,20.57,7.378,24A5.92,5.92,0,0,0,11.5,25.66Z" transform="translate(4.503 2.667)" fill="#9dc43a"/><path d="M0,0H32V32H0Z" transform="translate(32 32) rotate(180)" fill="none" opacity="0"/></svg>