<svg xmlns="http://www.w3.org/2000/svg" width="140.002" height="48" viewBox="0 0 140.002 48"><g transform="translate(-293 0.001)"><g transform="translate(293 -0.001)"><g transform="translate(31.914 9.572)"><rect width="3" height="19" transform="translate(25.086 9.42)" fill="#9dc43a"/><rect width="4" height="25" transform="translate(35.086 3.42)" fill="#9dc43a"/><rect width="3" height="10" transform="translate(32.086 12.42) rotate(-90)" fill="#9dc43a"/><ellipse cx="3" cy="2.5" rx="3" ry="2.5" transform="translate(23.586 2.42)" fill="#9dc43a"/><rect width="4" height="19" transform="translate(81.085 9.42)" fill="#9dc43a"/><ellipse cx="3" cy="2.5" rx="3" ry="2.5" transform="translate(80.085 2.42)" fill="#9dc43a"/><path d="M1210.82,463.458v.866a9.58,9.58,0,1,0,0,14.511v2.116h3.332V463.458Zm-6.248,14.37a6.248,6.248,0,1,1,6.248-6.248,6.248,6.248,0,0,1-6.248,6.248Z" transform="translate(-1106.064 -453.67)" fill="#9dc43a"/><path d="M1100.08,462.5a9.58,9.58,0,1,0,9.58,9.58,9.58,9.58,0,0,0-9.58-9.58Zm0,15.828a6.248,6.248,0,1,1,6.248-6.248,6.248,6.248,0,0,1-6.248,6.248Z" transform="translate(-1045.1 -453.961)" fill="#9dc43a"/><path d="M207.665,31.5h2.916l-4.165,4.165H203.5Z" transform="translate(-151.019 -27.96)" fill="#9dc43a"/><path d="M98.742,23,89.616,48.17l-.871,2.32H87.5l-.871-2.32L77.5,23h3.332l7.289,20.826L95.41,23Z" transform="translate(-77.5 -23)" fill="#9dc43a"/><path d="M1154.91,465v2.916a4.579,4.579,0,0,0-4.582,4.582V482.91H1147V465.417h3.332v2.116a5.407,5.407,0,0,1,1.25-1.379A5.35,5.35,0,0,1,1154.91,465Z" transform="translate(-1078.067 -455.42)" fill="#9dc43a"/></g><g transform="translate(89.727)"><path d="M1127.6,426.255l.9.883a4.79,4.79,0,1,1,0-6.7l-.9.883a3.541,3.541,0,1,0,0,4.932Z" transform="translate(-1120.286 -418.998)" fill="#167171"/><path d="M1146.83,426a3.332,3.332,0,1,0,3.332,3.332A3.332,3.332,0,0,0,1146.83,426Zm0,5.831a2.5,2.5,0,1,1,2.5-2.5,2.5,2.5,0,0,1-2.5,2.5Z" transform="translate(-1133.837 -423.083)" fill="#167171"/><path d="M1167.17,428.664v4.582h-.833v-4.582c0-.133-.083-.833-1.25-.833-1.237,0-1.249.8-1.249.833v4.582H1163V427h.833v.292a2.469,2.469,0,0,1,1.249-.292C1166.73,427,1167.17,428.089,1167.17,428.664Z" transform="translate(-1145.215 -423.665)" fill="#167171"/><path d="M276.083,5.192V3h-.833V5.192H274v.877h1.25V11.33h.833V6.069h1.25V5.192Z" transform="translate(-249.967 -1.749)" fill="#167171"/><path d="M292.47,3h1.03l-1.47,1.666H291Z" transform="translate(-259.886 -1.749)" fill="#167171"/><rect width="1" height="6" transform="translate(45.273 4.001)" fill="#167171"/><rect width="1" height="9" transform="translate(48.273 1.001)" fill="#167171"/><circle cx="0.625" cy="0.625" r="0.625" transform="translate(45.483 1.459)" fill="#167171"/><path d="M1212.12,423.5a3.09,3.09,0,0,0-2.291,1.008V421H1209v8.747h.833v-1.008a3.09,3.09,0,0,0,2.291,1.008,3.124,3.124,0,1,0,0-6.248Zm0,5.415a2.291,2.291,0,1,1,2.291-2.291,2.291,2.291,0,0,1-2.291,2.291Z" transform="translate(-1172.055 -420.166)" fill="#167171"/><path d="M1194.41,427.708v.8a3.09,3.09,0,0,0-2.291-1.008,3.124,3.124,0,1,0,0,6.248,3.09,3.09,0,0,0,2.291-1.008v.8h.833v-5.831Zm-2.291,5.206a2.291,2.291,0,1,1,2.291-2.291,2.291,2.291,0,0,1-2.291,2.291Z" transform="translate(-1160.386 -423.958)" fill="#167171"/></g><g transform="translate(0 8.739)"><path d="M916.5,445A12.5,12.5,0,1,0,929,457.5,12.5,12.5,0,0,0,916.5,445Zm0,20.826a8.33,8.33,0,1,1,8.33-8.33,8.33,8.33,0,0,1-8.33,8.33Z" transform="translate(-904 -442.917)" fill="#94bc3d"/><path d="M28.158,24.385,14.17,45.158,4,31.416l4.482-1.009,5.528,7.468L25.368,21Z" transform="translate(-2.334 -21)" fill="#1e4141"/></g></g><path d="M1.128-13.19a3.479,3.479,0,0,0,1,2.492A3.479,3.479,0,0,0,4.607-9.661a3.565,3.565,0,0,0,2.259-.82.529.529,0,0,0,.2-.379.529.529,0,0,0-.147-.4.6.6,0,0,0-.75-.03,2.546,2.546,0,0,1-1.559.61,2.442,2.442,0,0,1-1.736-.747,2.442,2.442,0,0,1-.683-1.762,2.45,2.45,0,0,1,.682-1.766,2.45,2.45,0,0,1,1.737-.753,2.546,2.546,0,0,1,1.559.61.6.6,0,0,0,.75-.03.529.529,0,0,0,.147-.4.529.529,0,0,0-.2-.379,3.565,3.565,0,0,0-2.259-.82,3.488,3.488,0,0,0-2.479,1.043,3.488,3.488,0,0,0-1,2.5Zm9.746-2.479a1.079,1.079,0,0,1,.787.375,1.079,1.079,0,0,1,.253.834,1.079,1.079,0,0,1-.27.843,1.079,1.079,0,0,1-.81.357H9.3v-2.409Zm.36,3.338a1.961,1.961,0,0,0,1.779-2.129,2.016,2.016,0,0,0-.554-1.571,2.016,2.016,0,0,0-1.546-.618H8.8a.541.541,0,0,0-.41.165.541.541,0,0,0-.15.415v5.817a.532.532,0,0,0,.51.54.546.546,0,0,0,.55-.54V-12.29h.78l1.569,2.359a.551.551,0,0,0,.73.14.556.556,0,0,0,.12-.77Zm2.729-.86a3.479,3.479,0,0,0,1,2.492,3.479,3.479,0,0,0,2.478,1.036,3.565,3.565,0,0,0,2.259-.82.529.529,0,0,0,.2-.379.529.529,0,0,0-.147-.4.6.6,0,0,0-.75-.03,2.546,2.546,0,0,1-1.559.61,2.442,2.442,0,0,1-1.736-.747,2.442,2.442,0,0,1-.683-1.762,2.45,2.45,0,0,1,.682-1.766,2.45,2.45,0,0,1,1.737-.753A2.546,2.546,0,0,1,19-15.1a.6.6,0,0,0,.75-.03.529.529,0,0,0,.147-.4.529.529,0,0,0-.2-.379,3.565,3.565,0,0,0-2.259-.82,3.488,3.488,0,0,0-2.478,1.043,3.488,3.488,0,0,0-1,2.5Zm7.217.6a.472.472,0,0,0-.335.142.472.472,0,0,0-.135.338.461.461,0,0,0,.139.329.461.461,0,0,0,.331.131h2.65a.461.461,0,0,0,.331-.131.461.461,0,0,0,.139-.329.472.472,0,0,0-.135-.338.472.472,0,0,0-.335-.142Zm4.238,1.459a2.381,2.381,0,0,0,2.319,1.469,2.152,2.152,0,0,0,2.349-1.849c.11-.99-.47-1.769-1.859-2.139l-.88-.23c-.82-.21-.92-.63-.92-.9a1.076,1.076,0,0,1,.4-.722,1.076,1.076,0,0,1,.792-.228,1.22,1.22,0,0,1,1.15.62.511.511,0,0,0,.265.293.511.511,0,0,0,.4.017.49.49,0,0,0,.279-.265.49.49,0,0,0,0-.385,1.983,1.983,0,0,0-2.069-1.279,2.1,2.1,0,0,0-1.549.507,2.1,2.1,0,0,0-.72,1.462c0,.61.23,1.449,1.709,1.849l.87.22c.64.15,1.13.48,1.09,1.119a1.164,1.164,0,0,1-1.3.94,1.331,1.331,0,0,1-1.31-.83.539.539,0,0,0-.274-.315.539.539,0,0,0-.416-.025.524.524,0,0,0-.3.27.524.524,0,0,0-.02.4Zm5.548-2.059a3.479,3.479,0,0,0,1,2.492,3.479,3.479,0,0,0,2.478,1.036,3.565,3.565,0,0,0,2.259-.82.529.529,0,0,0,.2-.379.529.529,0,0,0-.147-.4.6.6,0,0,0-.75-.03,2.546,2.546,0,0,1-1.559.61,2.442,2.442,0,0,1-1.736-.747,2.442,2.442,0,0,1-.683-1.762,2.45,2.45,0,0,1,.682-1.766,2.45,2.45,0,0,1,1.737-.753A2.546,2.546,0,0,1,36-15.1a.6.6,0,0,0,.75-.03.529.529,0,0,0,.147-.4.529.529,0,0,0-.2-.379,3.565,3.565,0,0,0-2.259-.82,3.488,3.488,0,0,0-2.479,1.044,3.488,3.488,0,0,0-1,2.5Zm9.377.18c0,1.849.5,3.348,2.389,3.348s2.379-1.5,2.379-3.348-.49-3.368-2.379-3.368-2.388,1.51-2.388,3.369Zm1.02,0c0-1.289.28-2.349,1.369-2.349s1.36,1.06,1.36,2.349-.28,2.349-1.36,2.349-1.369-1.058-1.369-2.348Zm4.928-2.529a.523.523,0,0,0-.22.65.419.419,0,0,0,.245.244.419.419,0,0,0,.345-.024l.59-.29v4.728a.51.51,0,0,0,.49.52.525.525,0,0,0,.53-.52v-5.787a.305.305,0,0,0-.089-.221.305.305,0,0,0-.221-.089h-.02a.88.88,0,0,0-.35.14Zm3.469,2.53c0,1.849.5,3.348,2.389,3.348s2.379-1.5,2.379-3.348-.49-3.368-2.379-3.368S49.76-14.869,49.76-13.01Zm1.02,0c0-1.289.28-2.349,1.369-2.349s1.36,1.06,1.36,2.349-.28,2.349-1.36,2.349S50.78-11.72,50.78-13.01Zm4.958,0c0,1.849.5,3.348,2.389,3.348s2.379-1.5,2.379-3.348-.49-3.368-2.379-3.368S55.738-14.869,55.738-13.01Zm1.02,0c0-1.289.28-2.349,1.369-2.349s1.36,1.06,1.36,2.349-.28,2.349-1.36,2.349S56.758-11.72,56.758-13.01Zm6.388-1.659A.761.761,0,0,1,63.4-15.2a.761.761,0,0,1,.559-.194.761.761,0,0,1,.559.194.761.761,0,0,1,.251.536.766.766,0,0,1-.235.546.766.766,0,0,1-.555.214.766.766,0,0,1-.582-.2.766.766,0,0,1-.249-.562Zm-.48,2.829a1.208,1.208,0,0,1,1.21-1.179h.11a1.218,1.218,0,0,1,1.25,1.179,1.227,1.227,0,0,1-.391.862,1.227,1.227,0,0,1-.889.327,1.236,1.236,0,0,1-.893-.326,1.236,1.236,0,0,1-.4-.863Zm-.52-2.839a1.574,1.574,0,0,0,.48,1.139,1.969,1.969,0,0,0-.98,1.709,2.22,2.22,0,0,0,.7,1.569,2.22,2.22,0,0,0,1.61.6,2.226,2.226,0,0,0,1.608-.6,2.226,2.226,0,0,0,.7-1.567,1.981,1.981,0,0,0-.99-1.709,1.524,1.524,0,0,0,.51-1.139,1.763,1.763,0,0,0-.559-1.235,1.763,1.763,0,0,0-1.27-.474,1.745,1.745,0,0,0-1.263.475,1.745,1.745,0,0,0-.546,1.234Zm6.2.43a1.1,1.1,0,0,1,.34-.806,1.1,1.1,0,0,1,.82-.3,1.162,1.162,0,0,1,1.13,1.189,1.169,1.169,0,0,1-1.21,1.11,1.133,1.133,0,0,1-.789-.37,1.133,1.133,0,0,1-.293-.82Zm-.72,3.778a1.985,1.985,0,0,0,1.649.81c2.269.07,2.569-2.429,2.419-4.468a2.2,2.2,0,0,0-2.149-2.249A2.145,2.145,0,0,0,68-15.8a2.145,2.145,0,0,0-.682,1.5,2.054,2.054,0,0,0,.546,1.546,2.054,2.054,0,0,0,1.5.654,1.377,1.377,0,0,0,1.4-.82c.06,1.229-.54,2.3-1.449,2.3a1.09,1.09,0,0,1-.86-.42.522.522,0,0,0-.72-.11.476.476,0,0,0-.2.316.476.476,0,0,0,.09.363Zm8.887-5.538a.481.481,0,0,0,.03-.369.481.481,0,0,0-.24-.281.491.491,0,0,0-.63.24l-2.959,6.027a.456.456,0,0,0-.034.35.456.456,0,0,0,.224.27.478.478,0,0,0,.369.032.478.478,0,0,0,.281-.242ZM78.42-13.19a2.445,2.445,0,0,1,.687-1.755,2.445,2.445,0,0,1,1.732-.745,2.447,2.447,0,0,1,1.738.742,2.447,2.447,0,0,1,.691,1.758,2.439,2.439,0,0,1-.693,1.754,2.439,2.439,0,0,1-1.736.736,2.437,2.437,0,0,1-1.731-.739,2.437,2.437,0,0,1-.688-1.751Zm-1.06,0a3.479,3.479,0,0,0,1,2.492,3.479,3.479,0,0,0,2.478,1.036,3.49,3.49,0,0,0,2.488-1.032,3.49,3.49,0,0,0,1.012-2.5,3.492,3.492,0,0,0-1.009-2.5,3.492,3.492,0,0,0-2.491-1.036,3.482,3.482,0,0,0-2.48,1.041A3.482,3.482,0,0,0,77.36-13.19Z" transform="translate(348.206 57.651)" fill="#167171"/></g></svg>