<svg xmlns="http://www.w3.org/2000/svg" width="32" height="32" viewBox="0 0 32 32"><path d="M20,23.667H6.667a7.825,7.825,0,0,1-5.514-1.851A7.581,7.581,0,0,1-1,16V6.667A7.581,7.581,0,0,1,1.153.851,7.825,7.825,0,0,1,6.667-1H20A7.825,7.825,0,0,1,25.514.851a7.581,7.581,0,0,1,2.153,5.816V16a7.581,7.581,0,0,1-2.153,5.816A7.825,7.825,0,0,1,20,23.667ZM6.667,1A5.922,5.922,0,0,0,2.514,2.316,5.694,5.694,0,0,0,1,6.667V16a5.694,5.694,0,0,0,1.514,4.351,5.922,5.922,0,0,0,4.153,1.316H20a5.922,5.922,0,0,0,4.153-1.316A5.694,5.694,0,0,0,25.667,16V6.667a5.694,5.694,0,0,0-1.514-4.351A5.922,5.922,0,0,0,20,1Z" transform="translate(2.667 4.667)" fill="#9dc43a"/><path d="M6.66,5.153A5.014,5.014,0,0,1,3.537,4.116L-.625.78A1,1,0,0,1-.78-.625,1,1,0,0,1,.625-.78l4.16,3.333a3.2,3.2,0,0,0,3.752,0L12.709-.781a1,1,0,0,1,1.405.157A1,1,0,0,1,13.957.781L9.784,4.115A5.015,5.015,0,0,1,6.66,5.153Z" transform="translate(9.333 12)" fill="#9dc43a"/><path d="M0,0H32V32H0Z" fill="none" opacity="0"/></svg>