<svg xmlns="http://www.w3.org/2000/svg" xmlns:xlink="http://www.w3.org/1999/xlink" width="24" height="24" viewBox="0 0 24 24"><defs><clipPath id="a"><rect width="24" height="24" fill="none"/></clipPath></defs><g clip-path="url(#a)"><path d="M17,2H9A3.009,3.009,0,0,0,6,5H5A1,1,0,1,0,5,7H6V9H5a1,1,0,1,0,0,2H6v2H5a1,1,0,1,0,0,2H6v2H5a1,1,0,1,0,0,2H6a3,3,0,0,0,3,3h8a3,3,0,0,0,3-3V5a3,3,0,0,0-3-3m1,17a1,1,0,0,1-1,1H9a1,1,0,0,1-1-1,1,1,0,0,0,0-2V15a1,1,0,0,0,0-2V11A1,1,0,0,0,8,9V7A1,1,0,0,0,8,5,1,1,0,0,1,9,4h8a1,1,0,0,1,1,1Z"/><path d="M11,6h4a1,1,0,0,1,0,2H11a1,1,0,0,1,0-2" /><path d="M11,9h4a1,1,0,0,1,0,2H11a1,1,0,0,1,0-2" /></g></svg>